<?xml version="1.0" encoding="utf-8"?>
<!-- Generator: Adobe Illustrator 19.0.1, SVG Export Plug-In . SVG Version: 6.00 Build 0)  -->
<svg version="1.1" id="Слой_1" xmlns="http://www.w3.org/2000/svg" xmlns:xlink="http://www.w3.org/1999/xlink" x="0px" y="0px"
	 width="138px" height="46px" viewBox="0 0 138 46" style="enable-background:new 0 0 138 46;" xml:space="preserve">
<style type="text/css">
	.st0{fill:#E72025;}
</style>
<g>
	<path class="st0" d="M43.2,1H7.3C3.8,1,1,3.8,1,7.3v31.2C1,42.1,3.9,45,7.5,45h35.7c0.9,0,1.6-0.7,1.6-1.6V2.6
		C44.8,1.7,44.1,1,43.2,1z M7.3,4.3h34.2v6.1H39v-3c0-0.6-0.5-1.1-1.1-1.1H4.5C4.9,5.1,6,4.3,7.3,4.3z M36.8,10.3H7.3
		c-1.3,0-2.4-0.8-2.8-2h32.4L36.8,10.3L36.8,10.3z M7.5,41.7c-1.8,0-3.3-1.5-3.3-3.3V12.8c0.9,0.5,1.9,0.8,3,0.8h34.2v8.1h-6.9
		c-3.3,0-6,2.7-6,6s2.7,6,6,6h6.9v8.1H7.5z M41.5,31.5h-6.9c-2.1,0-3.8-1.7-3.8-3.8s1.7-3.8,3.8-3.8h6.9V31.5z"/>
	<path class="st0" d="M33.1,27.7c0,0.4,0.2,0.8,0.5,1.2c0.3,0.3,0.7,0.5,1.2,0.5c0.4,0,0.8-0.2,1.1-0.5c0.3-0.3,0.5-0.7,0.5-1.2
		s-0.2-0.8-0.5-1.1c-0.3-0.3-0.7-0.5-1.1-0.5c-0.4,0-0.8,0.2-1.2,0.5C33.3,26.8,33.1,27.2,33.1,27.7z"/>
</g>
<g>
	<path class="st0" d="M83.3,6.5c0.5-0.1,0.8-0.5,0.8-1.1V2.1c0-0.6-0.5-1.1-1.1-1.1h-30C52.5,1,52,1.5,52,2.1v3.3
		c0,0.5,0.4,1,0.8,1.1c0.3,5.9,3.4,11.3,8.3,14.6l2.1,1.4l-2.1,1.4c-4.9,3.3-8,8.7-8.3,14.6c-0.5,0.1-0.8,0.5-0.8,1.1v3.3
		c0,0.6,0.5,1.1,1.1,1.1h30c0.6,0,1.1-0.5,1.1-1.1v-3.3c0-0.5-0.4-1-0.8-1.1C83,32.6,79.9,27.2,75,23.9l-2.1-1.4l2.1-1.4
		C79.9,17.8,83,12.4,83.3,6.5L83.3,6.5z M54.2,3.2H82v1.1H54.2V3.2z M82,41.8H54.2v-1.1H82V41.8z M70.3,21.6
		c-0.3,0.2-0.5,0.5-0.5,0.9s0.2,0.7,0.5,0.9l3.4,2.3c4.3,2.9,7,7.6,7.4,12.8H55c0.3-5.2,3-9.9,7.4-12.8l3.4-2.3
		c0.3-0.2,0.5-0.5,0.5-0.9s-0.2-0.7-0.5-0.9l-3.4-2.3c-4.3-2.9-7-7.6-7.4-12.8h26.1c-0.3,5.2-3,9.9-7.4,12.8L70.3,21.6L70.3,21.6z"
		/>
	<path class="st0" d="M70.9,16.1h-5.7c-0.5,0-0.9,0.3-1,0.7c-0.2,0.4,0,0.9,0.3,1.2l2.9,2.6c0.2,0.2,0.5,0.3,0.7,0.3
		c0.3,0,0.5-0.1,0.7-0.3l2.9-2.6c0.3-0.3,0.5-0.8,0.3-1.2C71.8,16.4,71.4,16.1,70.9,16.1z"/>
	<path class="st0" d="M68,26.7l-2.8,1.8c-2.4,1.6-3.9,4.4-3.9,7.3h14c0-2.9-1.5-5.7-3.9-7.3l-2.8-1.8C68.5,26.6,68.2,26.6,68,26.7
		L68,26.7z"/>
</g>
<path class="st0" d="M115.8,2.6c-0.3,0-0.6,0.2-0.8,0.4c-0.5,0.7-12.5,18.3-12.5,27.2c0,7.3,6,13.3,13.3,13.3s13.3-6,13.3-13.3
	c0-8.9-12-26.5-12.5-27.2C116.4,2.7,116.2,2.6,115.8,2.6L115.8,2.6z M115.8,41.6c-6.3,0-11.4-5.1-11.4-11.4c0-7.1,8.7-20.9,11.4-25
	c2.7,4.1,11.4,17.9,11.4,25C127.3,36.5,122.1,41.6,115.8,41.6z"/>
<path class="st0" d="M114.9,38.2c0,0.5,0.4,0.9,0.9,0.9c4.9,0,8.9-4,8.9-8.9c0-0.5-0.4-0.9-0.9-0.9s-0.9,0.4-0.9,0.9
	c0,3.9-3.2,7-7,7C115.3,37.3,114.9,37.7,114.9,38.2z"/>
<path class="st0" d="M126.3,5.8c-1.5,1.1-3.3,1.1-3.3,1.1c1.7,0,2.9,0.5,3.7,1.2c0.3,0.3,0.6,0.6,0.8,0.9c0.2,0.3,0.3,0.5,0.4,0.8
	c0.5,1.2,0.5,2.3,0.5,2.5c0-0.1,0-1,0.4-2.1c0.1-0.2,0.2-0.4,0.3-0.6c0,0,0,0,0,0c0.1-0.2,0.2-0.4,0.3-0.6c0.2-0.3,0.5-0.7,0.9-1
	c0.2-0.1,0.3-0.3,0.5-0.4c0.2-0.1,0.4-0.2,0.6-0.3c0.7-0.3,1.4-0.5,2.4-0.5c0,0,0,0,0,0c-5.4,0-5.4-5.4-5.4-5.4c0,1.5-0.4,2.5-1,3.3
	c-0.1,0.2-0.3,0.4-0.5,0.5C126.7,5.5,126.5,5.7,126.3,5.8z"/>
<path class="st0" d="M97,35.3c-1.4,1-3,1-3,1c1.6,0,2.6,0.5,3.4,1.1c0.3,0.3,0.5,0.5,0.7,0.8c0.2,0.2,0.3,0.5,0.4,0.7
	c0.5,1.1,0.5,2.1,0.5,2.2c0-0.1,0-0.9,0.4-1.9c0.1-0.2,0.2-0.4,0.3-0.6c0,0,0,0,0,0c0.1-0.2,0.2-0.3,0.3-0.5
	c0.2-0.3,0.5-0.6,0.8-0.9c0.1-0.1,0.3-0.2,0.5-0.3c0.2-0.1,0.3-0.2,0.5-0.3c0.6-0.3,1.3-0.4,2.2-0.4c0,0,0,0,0,0
	c-4.8,0-4.9-4.9-4.9-4.9c0,1.3-0.4,2.3-0.9,3c-0.1,0.2-0.3,0.3-0.4,0.5C97.4,35.1,97.2,35.2,97,35.3z"/>
</svg>
