<?xml version="1.0" encoding="utf-8"?>
<!-- Generator: Adobe Illustrator 19.0.1, SVG Export Plug-In . SVG Version: 6.00 Build 0)  -->
<svg version="1.1" id="Слой_1" xmlns="http://www.w3.org/2000/svg" xmlns:xlink="http://www.w3.org/1999/xlink" x="0px" y="0px"
	 width="293px" height="293px" viewBox="0 0 293 293" style="enable-background:new 0 0 293 293;" xml:space="preserve">
<style type="text/css">
	.st0{fill-rule:evenodd;clip-rule:evenodd;fill:#EFF6FA;}
	.st1{fill-rule:evenodd;clip-rule:evenodd;fill:#5E9AD4;}
	.st2{fill-rule:evenodd;clip-rule:evenodd;fill:#FFFFFF;}
</style>
<g>
	<path class="st0" d="M146.5,0C227.4,0,293,65.6,293,146.5c0,80.9-65.6,146.5-146.5,146.5C65.6,293,0,227.4,0,146.5
		C0,65.6,65.6,0,146.5,0z"/>
	<path class="st1" d="M285,194.5c-6.6,0-15.8,3.6-18.8,6.8c-2.7,2.9-4.8,5.2-9.2,5.2c-4.4,0-6.5-2.3-9.2-5.2
		c-2.9-3.2-6.2-6.8-12.8-6.8c-6.6,0-9.9,3.6-12.8,6.8c-2.7,2.9-4.8,5.2-9.2,5.2c-4.4,0-6.5-2.3-9.2-5.2c-2.9-3.2-6.2-6.8-12.8-6.8
		c-6.6,0-9.9,3.6-12.8,6.8c-2.7,2.9-4.8,5.2-9.2,5.2c-4.4,0-6.5-2.3-9.2-5.2c-2.9-3.2-6.2-6.8-12.8-6.8c-6.6,0-9.9,3.6-12.8,6.8
		c-2.7,2.9-4.8,5.2-9.2,5.2c-4.4,0-6.5-2.3-9.2-5.2c-2.9-3.2-6.2-6.8-12.8-6.8c-6.6,0-9.9,3.6-12.8,6.8c-2.7,2.9-4.8,5.2-9.2,5.2
		c-4.4,0-6.5-2.3-9.2-5.2c-2.9-3.2-6.2-6.8-12.8-6.8c-6.6,0-9.9,3.6-12.8,6.8c-2.7,2.9-4.8,5.2-9.2,5.2c-4.4,0-6.5-2.3-9.2-5.2
		c-2.9-3.2-7.2-6.8-13.8-6.8l-6,0l1.5,4C30.7,253.8,83.5,293,146.1,293c62.5,0,115.9-39,137.1-93.9L285,194.5z"/>
	<path class="st2" d="M275.6,117.6c0,0,16.4,69-34.7,130.4c0,0-15,18.5-25.8,8.1c0,0-9.9-11,15.7-36.4c0,0,31.3-35.3,39.1-92.3
		C269.9,127.4,270.9,115.2,275.6,117.6z"/>
	<path class="st2" d="M17.5,168.5c0,0-10.2-70.1,46.2-126.8c0,0,16.6-17.1,26.4-5.8c0,0,8.9,11.8-18.9,34.9c0,0-34.4,32.3-47.1,88.4
		C24.1,159.2,22.1,171.2,17.5,168.5z"/>
</g>
</svg>
