<?xml version="1.0" encoding="utf-8"?>
<!-- Generator: Adobe Illustrator 19.0.1, SVG Export Plug-In . SVG Version: 6.00 Build 0)  -->
<svg version="1.1" id="Слой_1" xmlns="http://www.w3.org/2000/svg" xmlns:xlink="http://www.w3.org/1999/xlink" x="0px" y="0px"
	 width="25px" height="25px" viewBox="0 0 25 25" style="enable-background:new 0 0 25 25;" xml:space="preserve">
<style type="text/css">
	.st0{fill:#3E6CA0;}
	.st1{fill:#70984B;}
	.st2{fill:#F1CB31;}
	.st3{fill:#B8392D;}
</style>
<g>
	<path class="st0" d="M1,13.6c3.7-0.7,8.4-1.4,13.1-3.4l6.1,5.1c-3.4,3.9-7.6,7.1-12.7,9.4L1,13.6"/>
	<path class="st1" d="M13.8,8.6c1.8-0.9,3.6-2,5.3-3.4l4.7,2.5c-1.1,2.1-2.3,4-3.7,5.9L13.8,8.6"/>
	<path class="st2" d="M19.1,4c0.6-0.5,1.1-1,1.6-1.6L24,4.1c-0.3,0.7-0.6,1.4-0.9,2.1L19.1,4"/>
	<path class="st3" d="M20.5,1.4c0.1-0.1,0.9-1,1-1.1l2.5,0.8c-0.1,0.2-0.5,1.5-0.5,1.7L20.5,1.4"/>
</g>
</svg>
