<?xml version="1.0" encoding="utf-8"?>
<!-- Generator: Adobe Illustrator 19.0.1, SVG Export Plug-In . SVG Version: 6.00 Build 0)  -->
<svg version="1.1" id="Слой_1" xmlns="http://www.w3.org/2000/svg" xmlns:xlink="http://www.w3.org/1999/xlink" x="0px" y="0px"
	 width="160px" height="40px" viewBox="0 0 160 40" style="enable-background:new 0 0 160 40;" xml:space="preserve">
<style type="text/css">
	.st0{fill:#D24A43;}
</style>
<g>
	<path class="st0" d="M32.4,21.9l5.5,11.4c0.2,0.5,0,0.8-0.5,0.8H2.6c-0.5,0-0.8-0.4-0.5-0.8l5.5-11.4c0.1-0.2,0.3-0.3,0.5-0.3h4.8
		c0.1,0,0.3,0.1,0.4,0.2c0.3,0.4,0.7,0.7,1,1.1c0.3,0.3,0.6,0.7,0.9,1H9.6c-0.2,0-0.4,0.1-0.5,0.3l-3.7,7.5h29.2l-3.7-7.5
		c-0.1-0.2-0.3-0.3-0.5-0.3h-5.7c0.3-0.4,0.6-0.7,0.9-1c0.3-0.4,0.7-0.7,1-1.1c0.1-0.1,0.3-0.2,0.4-0.2h4.8
		C32,21.6,32.3,21.8,32.4,21.9z M28.1,14.2c0,6.2-5.2,7.4-7.6,13.4c-0.2,0.5-0.9,0.5-1.1,0c-2.2-5.4-6.6-6.9-7.5-11.7
		c-0.8-4.7,2.4-9.4,7.2-9.8C24.1,5.6,28.1,9.4,28.1,14.2z M24.3,14.2c0-2.4-1.9-4.3-4.3-4.3s-4.3,1.9-4.3,4.3c0,2.4,1.9,4.3,4.3,4.3
		S24.3,16.5,24.3,14.2z"/>
</g>
<g>
	<g>
		<path class="st0" d="M75.9,19.2c-0.1-0.1-1.7-2.1-4.4-4.1C67.9,12.4,63.9,11,60,11c-3.9,0-7.9,1.4-11.5,4.1c-2.7,2-4.3,4-4.4,4.1
			l-0.6,0.7l0.6,0.7c0.1,0.1,1.7,2.1,4.4,4.1c3.7,2.7,7.6,4.1,11.5,4.1c3.9,0,7.9-1.4,11.5-4.1c2.7-2,4.3-4,4.4-4.1l0.6-0.7
			L75.9,19.2z M60,26.2c-3.5,0-6.3-2.8-6.3-6.3c0-0.5,0.1-1.1,0.2-1.6l-1.4-0.2c-0.1,0.6-0.2,1.2-0.2,1.8c0,2.2,1,4.2,2.5,5.6
			c-2-0.7-3.6-1.7-4.9-2.7c-1.6-1.1-2.7-2.3-3.4-3c0.7-0.7,1.8-1.9,3.4-3c1.3-0.9,2.9-1.9,4.9-2.7l1,1.1c1.1-1,2.6-1.7,4.3-1.7
			c3.5,0,6.3,2.8,6.3,6.3S63.5,26.2,60,26.2z M70.1,22.9c-1.3,0.9-2.9,1.9-4.9,2.7c1.5-1.4,2.5-3.4,2.5-5.6s-1-4.2-2.5-5.6
			c2,0.7,3.6,1.7,4.9,2.7c1.6,1.1,2.7,2.3,3.4,3C72.8,20.6,71.7,21.8,70.1,22.9z"/>
		<path class="st0" d="M56,18.7c-0.1,0.4-0.2,0.8-0.2,1.2c0,2.3,1.9,4.2,4.2,4.2c2.3,0,4.2-1.9,4.2-4.2s-1.9-4.2-4.2-4.2
			c-1.1,0-2.1,0.4-2.9,1.2l2.1,2.3L56,18.7z"/>
	</g>
</g>
<path id="XMLID_727_" class="st0" d="M103.4,36.1c-0.6,1.2-1.4,2.9-3.7,2.9c-2.4,0-3.1-1.6-3.8-3c-0.1-0.2-1.7-3.4-1.7-3.4
	c-3.5-6.8-7.1-14.3-7.1-18C87,7.7,92.7,2,99.6,2c7,0,12.6,5.7,12.6,12.6c0,1.4-0.5,3.5-1.7,6.3c-0.2,0.5-0.7,0.7-1.1,0.5
	c-0.5-0.2-0.7-0.7-0.5-1.1c1-2.6,1.5-4.5,1.5-5.7c0-6-4.9-10.9-10.9-10.9c-6,0-10.9,4.9-10.9,10.9c0,3.6,4.7,12.8,6.9,17.2
	c0,0,1.6,3.2,1.7,3.4c0.6,1.4,1,2,2.2,2c1.1,0,1.5-0.5,2.1-1.9c0.2-0.4,0.7-0.6,1.2-0.4C103.4,35.1,103.6,35.7,103.4,36.1z
	 M113,36.4c-0.3,1-1,1.8-2,2.2c-0.5,0.3-1.1,0.4-1.7,0.4c-1.4,0-2.8-0.8-3.5-2.2l-4.8-10c-0.4-0.9-0.5-2-0.2-2.9
	c0.2-0.5,0.4-0.9,0.8-1.3c-1.6,0.4-3.3,0.3-4.9-0.2c-2.1-0.8-3.7-2.3-4.7-4.3c-1.9-4.1-0.1-9,4-11v0c4.1-1.9,9-0.1,11,4
	c0.9,2,1,4.2,0.3,6.3c-0.6,1.6-1.6,2.9-2.9,3.9c0.5,0,0.9,0.1,1.4,0.2c1,0.3,1.8,1,2.2,2l4.8,10C113.3,34.4,113.4,35.4,113,36.4z
	 M102.4,20.5c1.6-0.7,2.8-2,3.3-3.7c0.6-1.6,0.5-3.4-0.2-5c-1.5-3.2-5.4-4.6-8.6-3.1v0c-3.2,1.5-4.6,5.4-3.1,8.6
	c0.7,1.6,2,2.8,3.7,3.4C99,21.3,100.8,21.2,102.4,20.5C102.4,20.5,102.4,20.5,102.4,20.5C102.4,20.5,102.4,20.5,102.4,20.5z
	 M111.3,34.2l-4.8-10c-0.2-0.5-0.7-0.9-1.2-1.1c-0.2-0.1-0.5-0.1-0.7-0.1c-0.3,0-0.6,0.1-0.9,0.2c-0.5,0.2-0.9,0.7-1.1,1.2
	c-0.2,0.5-0.2,1.1,0.1,1.6c0,0,0,0,0,0l4.8,10c0.5,1,1.7,1.5,2.8,1c0.5-0.2,0.9-0.7,1.1-1.2C111.5,35.3,111.5,34.7,111.3,34.2z
	 M97.7,10.4c-2.3,1.1-3.3,3.9-2.2,6.2c0.2,0.3,0.5,0.5,0.8,0.5c0.1,0,0.3,0,0.4-0.1c0.4-0.2,0.6-0.7,0.4-1.2
	c-0.3-0.7-0.4-1.5-0.1-2.2c0.3-0.7,0.8-1.3,1.5-1.6c0.4-0.2,0.6-0.7,0.4-1.2S98.1,10.2,97.7,10.4z"/>
<path class="st0" d="M140,34.5c-8,0-14.5-6.5-14.5-14.5S132,5.5,140,5.5S154.5,12,154.5,20S148,34.5,140,34.5z M140,7.7
	c-6.8,0-12.3,5.5-12.3,12.3c0,6.8,5.5,12.3,12.3,12.3c6.8,0,12.3-5.5,12.3-12.3C152.3,13.2,146.8,7.7,140,7.7z"/>
<path class="st0" d="M140.3,22.9c-1.1,0-2.1-0.9-2.1-2.1c0-0.7,0.4-1.4,1-1.8c0.1-0.1,0.2-0.2,0.2-0.4v-7c0-0.5,0.4-0.9,0.9-0.9
	c0.5,0,0.9,0.4,0.9,0.9v7c0,0.2,0.1,0.3,0.2,0.4c0.3,0.2,0.5,0.4,0.7,0.7c0.1,0.1,0.2,0.2,0.4,0.2h5.9c0.5,0,0.9,0.4,0.9,0.9
	c0,0.5-0.4,0.9-0.9,0.9h-5.9c-0.2,0-0.3,0.1-0.4,0.2C141.6,22.5,141,22.9,140.3,22.9z"/>
</svg>
