<?xml version="1.0" encoding="utf-8"?>
<!-- Generator: Adobe Illustrator 19.0.1, SVG Export Plug-In . SVG Version: 6.00 Build 0)  -->
<svg version="1.1" id="Слой_1" xmlns="http://www.w3.org/2000/svg" xmlns:xlink="http://www.w3.org/1999/xlink" x="0px" y="0px"
	 width="350px" height="150px" viewBox="0 0 350 150" style="enable-background:new 0 0 350 150;" xml:space="preserve">
<style type="text/css">
	.st0{fill:#363636;}
	.st1{fill:#5B9DE1;}
</style>
<g>
	<g>
		<path class="st0" d="M236.5,101.2l-3.5-3.6c-1.1,1.5-1.8,3.2-2.1,5.1h5C236,102.2,236.2,101.7,236.5,101.2z"/>
		<path class="st0" d="M235.9,105.8h-5c0.3,1.9,1,3.6,2.1,5.1l3.6-3.6C236.2,106.8,236,106.3,235.9,105.8z"/>
		<path class="st0" d="M235.1,112.9c1.5,1.1,3.2,1.8,5.1,2.1v-5c-0.5-0.1-1-0.3-1.5-0.6L235.1,112.9z"/>
		<path class="st0" d="M238.6,99.1c0.5-0.3,1-0.5,1.5-0.6v-5c-1.9,0.3-3.6,1-5.1,2.1L238.6,99.1z"/>
		<path class="st0" d="M248.2,95.5c-1.5-1.1-3.2-1.8-5.1-2.1v5c0.5,0.1,1.1,0.4,1.5,0.6L248.2,95.5z"/>
		<path class="st0" d="M243.2,110v5c1.9-0.3,3.6-1,5.1-2.1l-3.5-3.5C244.2,109.7,243.7,109.9,243.2,110z"/>
		<path class="st0" d="M246.8,107.3l3.6,3.6c1.1-1.5,1.8-3.2,2.1-5.1h-5C247.3,106.3,247.1,106.8,246.8,107.3z"/>
		<path class="st0" d="M246.8,101.2c0.3,0.5,0.5,1,0.6,1.5v0h5c-0.3-1.9-1-3.6-2.1-5.1L246.8,101.2z"/>
		<path class="st0" d="M97.7,101.2l-3.5-3.6c-1.1,1.5-1.8,3.2-2.1,5.1h5C97.2,102.2,97.4,101.7,97.7,101.2z"/>
		<path class="st0" d="M97.1,105.8h-5c0.3,1.9,1,3.6,2.1,5.1l3.6-3.6C97.5,106.8,97.3,106.3,97.1,105.8z"/>
		<path class="st0" d="M96.3,112.9c1.5,1.1,3.2,1.8,5.1,2.1v-5c-0.5-0.1-1-0.3-1.5-0.6L96.3,112.9z"/>
		<path class="st0" d="M99.8,99.1c0.5-0.3,1-0.5,1.5-0.6v-5c-1.9,0.3-3.6,1-5.1,2.1L99.8,99.1z"/>
		<path class="st0" d="M109.5,95.5c-1.5-1.1-3.2-1.8-5.1-2.1v5c0.5,0.1,1.1,0.4,1.5,0.6L109.5,95.5z"/>
		<path class="st0" d="M104.4,110v5c1.9-0.3,3.6-1,5.1-2.1l-3.5-3.5C105.4,109.7,104.9,109.9,104.4,110z"/>
		<path class="st0" d="M108,107.3l3.6,3.6c1.1-1.5,1.8-3.2,2.1-5.1h-5C108.5,106.3,108.3,106.8,108,107.3z"/>
		<path class="st0" d="M108.1,101.2c0.3,0.5,0.5,1,0.6,1.5v0h5c-0.3-1.9-1-3.6-2.1-5.1L108.1,101.2z"/>
		<path class="st0" d="M215.8,48.7c-0.1-0.1-0.2-0.2-0.2-0.2c-0.6-0.4-4.3-2.7-21.5-2.4c-0.8,0-1.5,0.6-1.6,1.4l-3.1,18.9
			c-0.1,0.5,0.1,1,0.4,1.4c0.3,0.4,0.8,0.6,1.3,0.6c0,0,0,0,0.1,0l37.2-1.1c0.6,0,1.2-0.4,1.5-1c0.3-0.6,0.2-1.3-0.3-1.8L215.8,48.7
			z M192.9,64.9l2.5-15.6c13.6-0.1,17.4,1.5,18,1.7L224.6,64L192.9,64.9z"/>
		<path class="st0" d="M283.3,78.2V66.6c0-2.8-2-5.2-4.8-5.6c-4.6-0.7-12.9-2.1-16.6-3.2c-2-0.6-6.2-2.3-11.1-4.2
			c-8.3-3.2-17.7-6.9-22.3-8l-1.4-0.3c-5.9-1.4-19.6-4.7-36.2-4.7c-12.3,0-23.7,1.8-33.9,5.4c-2.8,1-10.6,4.5-19.7,8.7
			c-7.7,3.5-16.4,7.5-23,10.3c-5.3,0.5-45.3,8.4-47.9,15.4c-2,5.3-2.7,8.2-3.2,9.7l-0.1,0.5c-0.5,1.9,0,9.4,3.2,14.7
			c0.1,0.2,0.4,0.4,0.6,0.6c3.3,1.8,10.5,4.2,17.6,5c0.1,0,0.1,0,0.2,0c0,0,0,0,0,0c0.1,0,0.1,0,0.2,0c2.7,7.3,9.8,12.5,17.9,12.5
			c8,0,15-5.1,17.8-12.2c0.2,0.1,0.3,0.1,0.5,0.1h0.1c0,0,0,0,0,0l101.6-2c0.1,0,0.3,0,0.4-0.1c2.2,8.2,9.7,14.2,18.4,14.2
			c9.8,0,18.1-7.6,19-17.3c0.3,0,0.6,0,0.7,0c0.1,0,0.3,0,0.4,0l17.6-3.3c0.2,0,0.3-0.1,0.5-0.2c0.3-0.2,7.4-4.1,7.4-14.5
			C287.3,82.6,284.6,79.4,283.3,78.2z M118.6,105.6c-0.7,8.1-7.6,14.4-15.7,14.4c-7.9,0-14.6-5.9-15.6-13.8c-0.1-0.6-0.1-1.3-0.1-2
			c0-8.7,7.1-15.7,15.7-15.7c4.2,0,8.2,1.6,11.1,4.6c3,3,4.6,6.9,4.6,11.1C118.6,104.7,118.6,105.1,118.6,105.6z M257.3,105.6
			c-0.7,8.1-7.6,14.4-15.7,14.4c-7.9,0-14.6-5.9-15.6-13.8c-0.1-0.6-0.1-1.3-0.1-2c0-8.7,7.1-15.7,15.7-15.7c4.2,0,8.2,1.6,11.1,4.6
			c3,3,4.6,6.9,4.6,11.1C257.4,104.7,257.3,105.1,257.3,105.6z M278.5,99.5l-16.5,3.1l-0.3,0c-0.2,0-0.5,0-0.8,0
			c-0.6-11.3-8-18.6-19.2-18.6c-12.1,0-20.8,8.5-20.8,20.2c0,0.5,0,1.1,0.1,1.6l-97.6,1.9c0.1-0.6,0.2-1.2,0.2-1.8
			c0-0.6,0.1-1.2,0.1-1.8c0-11.9-8.4-20.2-20.3-20.2c-11.7,0-20.5,9.2-20.5,21.3c0,0.6,0,1.2,0.1,1.8c-5.5-0.9-11-2.7-13.8-4.1
			c-2.6-4.5-2.9-10.7-2.6-11.7l0.1-0.5c0.4-1.6,1.1-4.3,3.1-9.4c1.7-4.3,39.8-13.1,45.2-13.2c0.2,0,0.4-0.1,0.6-0.1
			c6.6-2.8,15.5-6.8,23.3-10.4c8.6-3.9,16.7-7.6,19.4-8.5C168,45.7,179,44,190.9,44c16.2,0,29.7,3.2,35.4,4.6l1.5,0.3
			c4.3,1,14,4.8,21.8,7.8c5,1.9,9.2,3.6,11.3,4.2c3.6,1.1,11.3,2.4,17,3.3c1.2,0.2,2,1.2,2,2.3v12.3c0,0.5,0.3,1,0.7,1.3
			c0.1,0.1,3.2,2.5,3.2,7.8C283.9,95.7,279.5,98.9,278.5,99.5z"/>
		<path class="st0" d="M241.8,58.3l-1.7-0.9c-4.1-2.2-11.7-6.2-17.8-8.6c-0.7-0.3-1.5,0-2,0.6c-0.4,0.6-0.4,1.5,0.1,2.1l12.7,15
			c0.3,0.4,0.8,0.6,1.3,0.6h9.4c0.8,0,1.5-0.6,1.6-1.4C246,62.7,244.6,59.7,241.8,58.3z M235.2,63.7l-7.5-8.9
			c4.2,2,8.3,4.2,10.9,5.5l1.7,0.9c1,0.5,1.6,1.4,1.9,2.4H235.2z"/>
		<path class="st0" d="M189.2,46.7c-0.3-0.4-0.8-0.6-1.3-0.6c-1.2,0-30.4,0.6-45.5,14.2c-1.4,0.9-5.3,3.9-4.4,6.8
			c0.8,2.7,4.7,3,8.1,3c0,0,0,0,0,0l37.1-1.1c0.8,0,1.4-0.5,1.6-1.3l4.8-19.5C189.6,47.6,189.5,47.1,189.2,46.7z M181.8,65.6
			L146,66.7c-3.7,0-4.7-0.6-4.8-0.6c0,0,0,0,0,0c0.1-0.6,1.6-2.1,3.1-3.1c0.1,0,0.1-0.1,0.2-0.2c11.8-10.7,34.2-12.9,41.2-13.3
			L181.8,65.6z"/>
	</g>
	<g>
		<g>
			<path class="st1" d="M283.7,42h-53.2v-3.7h53.2c5.4,0,9.8-4.4,9.8-9.8c0-5.4-4.4-9.8-9.8-9.8c-5.4,0-9.8,4.4-9.8,9.8
				c0,1.5,0.3,3,1,4.3l-3.3,1.6c-0.9-1.9-1.4-3.9-1.4-6c0-7.4,6-13.4,13.4-13.4c7.4,0,13.4,6,13.4,13.4C297.1,36,291.1,42,283.7,42z
				"/>
		</g>
		<g>
			<path class="st1" d="M333.9,59.1h-79.3v-3.7h79.3c5.4,0,9.8-4.4,9.8-9.8s-4.4-9.8-9.8-9.8c-5.4,0-9.8,4.4-9.8,9.8
				c0,1.5,0.3,3,1,4.3l-3.3,1.6c-0.9-1.9-1.4-3.9-1.4-6c0-7.4,6-13.4,13.4-13.4s13.4,6,13.4,13.4S341.3,59.1,333.9,59.1z"/>
		</g>
		<g>
			<path class="st1" d="M307.5,51h-61.1v-3.7h61.1c3.2,0,5.8-2.6,5.8-5.8s-2.6-5.8-5.8-5.8s-5.8,2.6-5.8,5.8c0,0.9,0.2,1.8,0.6,2.6
				l-3.3,1.6c-0.7-1.3-1-2.7-1-4.2c0-5.2,4.2-9.4,9.4-9.4c5.2,0,9.4,4.2,9.4,9.4C316.9,46.7,312.7,51,307.5,51z"/>
		</g>
		<g>
			<path class="st1" d="M303.8,83.1c-5.2,0-9.4-4.2-9.4-9.4c0-1.5,0.3-2.9,1-4.2l3.3,1.6c-0.4,0.8-0.6,1.7-0.6,2.6
				c0,3.2,2.6,5.8,5.8,5.8s5.8-2.6,5.8-5.8s-2.6-5.8-5.8-5.8h-61.1v-3.7h61.1c5.2,0,9.4,4.2,9.4,9.4S309,83.1,303.8,83.1z"/>
		</g>
	</g>
	<path class="st1" d="M213.6,76.9c-1.8,1.2-3.9,1.3-3.9,1.3c2,0,3.4,0.6,4.4,1.5c0.4,0.3,0.7,0.7,0.9,1.1c0.2,0.3,0.4,0.6,0.5,0.9
		c0.6,1.4,0.6,2.8,0.6,2.9c0-0.1,0.1-1.2,0.5-2.4c0.1-0.2,0.2-0.5,0.3-0.8c0,0,0,0,0,0c0.1-0.2,0.2-0.5,0.4-0.7
		c0.3-0.4,0.6-0.8,1-1.1c0.2-0.2,0.4-0.3,0.6-0.4c0.2-0.1,0.4-0.3,0.7-0.4c0.8-0.3,1.7-0.5,2.8-0.5c0,0,0,0,0,0
		c-6.3,0-6.4-6.4-6.4-6.4c0,1.7-0.5,3-1.2,3.9c-0.2,0.2-0.4,0.4-0.6,0.6C214.1,76.6,213.9,76.8,213.6,76.9z"/>
	<path class="st1" d="M150.4,83.6c-3.5,2.4-7.6,2.5-7.6,2.5c3.9,0,6.6,1.2,8.5,2.8c0.7,0.6,1.3,1.4,1.8,2.1c0.4,0.6,0.7,1.2,1,1.8
		c1.2,2.7,1.2,5.3,1.2,5.7c0-0.3,0.1-2.3,1-4.7c0.2-0.5,0.4-1,0.6-1.5c0,0,0-0.1,0-0.1c0.2-0.4,0.5-0.9,0.8-1.3
		c0.5-0.8,1.2-1.5,2-2.2c0.4-0.3,0.8-0.6,1.2-0.9c0.4-0.3,0.9-0.5,1.3-0.7c1.5-0.7,3.3-1.1,5.5-1.1c0,0,0,0,0,0
		c-12.2,0-12.4-12.4-12.4-12.4c0,3.3-1,5.8-2.3,7.6c-0.3,0.4-0.7,0.8-1.1,1.2C151.4,82.9,150.9,83.3,150.4,83.6z"/>
	<path class="st1" d="M101.3,54.5c-2.3,1.6-4.9,1.6-4.9,1.6c2.6,0,4.3,0.8,5.5,1.8c0.5,0.4,0.9,0.9,1.2,1.4c0.3,0.4,0.5,0.8,0.6,1.2
		c0.8,1.8,0.8,3.5,0.8,3.7c0-0.2,0.1-1.5,0.6-3.1c0.1-0.3,0.3-0.6,0.4-1c0,0,0,0,0-0.1c0.1-0.3,0.3-0.6,0.5-0.8
		c0.3-0.5,0.8-1,1.3-1.4c0.2-0.2,0.5-0.4,0.8-0.6c0.3-0.2,0.6-0.3,0.9-0.5c1-0.4,2.1-0.7,3.6-0.7c0,0,0,0,0,0c-7.9,0-8-8.1-8-8.1
		c0,2.2-0.6,3.8-1.5,4.9c-0.2,0.3-0.4,0.5-0.7,0.8C101.9,54.1,101.6,54.3,101.3,54.5z"/>
</g>
</svg>
