<?xml version="1.0" encoding="utf-8"?>
<!-- Generator: Adobe Illustrator 19.0.1, SVG Export Plug-In . SVG Version: 6.00 Build 0)  -->
<svg version="1.1" id="Слой_1" xmlns="http://www.w3.org/2000/svg" xmlns:xlink="http://www.w3.org/1999/xlink" x="0px" y="0px"
	 width="350px" height="150px" viewBox="0 0 350 150" style="enable-background:new 0 0 350 150;" xml:space="preserve">
<style type="text/css">
	.st0{fill:#363636;}
	.st1{fill:#5B9DE1;}
</style>
<g>
	<g>
		<path class="st0" d="M236.4,111.7l-3.6-3.6c-1.1,1.5-1.8,3.2-2.1,5.1h5C235.9,112.6,236.1,112.1,236.4,111.7z"/>
		<path class="st0" d="M235.8,116.2h-5.1c0.3,1.9,1,3.6,2.1,5.1l3.6-3.6C236.1,117.3,235.9,116.7,235.8,116.2z"/>
		<path class="st0" d="M235,123.4c1.5,1.1,3.2,1.8,5.1,2.1v-5c-0.5-0.1-1-0.3-1.5-0.6L235,123.4z"/>
		<path class="st0" d="M238.5,109.5c0.5-0.3,1-0.5,1.5-0.6v-5c-1.9,0.3-3.6,1-5.1,2.1L238.5,109.5z"/>
		<path class="st0" d="M248.2,105.9c-1.5-1.1-3.2-1.8-5.1-2.1v5c0.5,0.1,1.1,0.4,1.5,0.6L248.2,105.9z"/>
		<path class="st0" d="M243.1,120.5v5c1.9-0.3,3.6-1,5.1-2.1l-3.6-3.6C244.1,120.1,243.6,120.3,243.1,120.5z"/>
		<path class="st0" d="M246.7,117.7l3.6,3.6c1.1-1.5,1.8-3.2,2.1-5.1h-5C247.2,116.8,247,117.3,246.7,117.7z"/>
		<path class="st0" d="M246.7,111.7c0.3,0.5,0.5,1,0.6,1.5v0h5c-0.3-1.9-1-3.6-2.1-5.1L246.7,111.7z"/>
		<path class="st0" d="M97.2,111.7l-3.6-3.6c-1.1,1.5-1.8,3.2-2.1,5.1h5C96.7,112.6,96.9,112.1,97.2,111.7z"/>
		<path class="st0" d="M96.6,116.2h-5.1c0.3,1.9,1,3.6,2.1,5.1l3.6-3.6C96.9,117.3,96.7,116.7,96.6,116.2z"/>
		<path class="st0" d="M95.8,123.4c1.5,1.1,3.2,1.8,5.1,2.1v-5c-0.5-0.1-1-0.3-1.5-0.6L95.8,123.4z"/>
		<path class="st0" d="M99.3,109.5c0.5-0.3,1-0.5,1.5-0.6v-5c-1.9,0.3-3.6,1-5.1,2.1L99.3,109.5z"/>
		<path class="st0" d="M109,105.9c-1.5-1.1-3.2-1.8-5.1-2.1v5c0.5,0.1,1.1,0.4,1.5,0.6L109,105.9z"/>
		<path class="st0" d="M103.9,120.5v5c1.9-0.3,3.6-1,5.1-2.1l-3.6-3.6C104.9,120.1,104.4,120.3,103.9,120.5z"/>
		<path class="st0" d="M107.5,117.7l3.6,3.6c1.1-1.5,1.8-3.2,2.1-5.1h-5C108,116.8,107.8,117.3,107.5,117.7z"/>
		<path class="st0" d="M107.5,111.7c0.3,0.5,0.5,1,0.6,1.5v0h5c-0.3-1.9-1-3.6-2.1-5.1L107.5,111.7z"/>
		<path class="st0" d="M215.6,59c-0.1-0.1-0.2-0.2-0.2-0.2c-0.6-0.4-4.3-2.7-21.6-2.5c-0.8,0-1.5,0.6-1.6,1.4l-3.1,19
			c-0.1,0.5,0.1,1,0.4,1.4c0.3,0.4,0.8,0.6,1.3,0.6c0,0,0,0,0.1,0l37.4-1.1c0.6,0,1.2-0.4,1.5-1c0.3-0.6,0.2-1.3-0.3-1.8L215.6,59z
			 M192.7,75.3l2.5-15.6c13.7-0.1,17.5,1.5,18,1.7l11.2,12.9L192.7,75.3z"/>
		<path class="st0" d="M188.9,56.9c-0.3-0.4-0.8-0.6-1.3-0.6c-1.2,0-30.5,0.6-45.6,14.2c-1.4,0.9-5.3,3.9-4.4,6.8
			c0.8,2.7,4.7,3.1,8.1,3.1c0,0,0,0,0,0l37.2-1.1c0.8,0,1.4-0.5,1.6-1.3l4.8-19.6C189.4,57.9,189.2,57.3,188.9,56.9z M181.5,75.9
			L145.6,77c-3.7,0-4.7-0.6-4.8-0.6c0,0,0,0,0,0c0.1-0.6,1.6-2.1,3.1-3.1c0.1,0,0.1-0.1,0.2-0.2c11.9-10.8,34.3-12.9,41.3-13.4
			L181.5,75.9z"/>
		<path class="st0" d="M241.7,68.6l-1.7-0.9c-4.1-2.2-11.7-6.2-17.9-8.6c-0.7-0.3-1.5,0-2,0.6c-0.5,0.6-0.4,1.5,0.1,2.1L233,76.8
			c0.3,0.4,0.8,0.6,1.3,0.6h9.5c0.8,0,1.5-0.6,1.7-1.4C245.9,73,244.5,70,241.7,68.6z M235.1,74.1l-7.5-8.9c4.2,2,8.3,4.2,10.9,5.6
			l1.8,0.9c1,0.5,1.6,1.4,1.9,2.4H235.1z"/>
		<path class="st0" d="M283.4,88.5V76.9c0-2.8-2-5.2-4.8-5.6c-4.6-0.7-13-2.1-16.6-3.2c-2-0.6-6.2-2.3-11.2-4.2
			c-8.3-3.2-17.8-6.9-22.4-8l-1.4-0.3c-5.9-1.4-19.6-4.7-36.3-4.7c-12.3,0-23.8,1.8-34,5.4c-2.9,1-10.7,4.6-19.7,8.7
			c-7.7,3.5-16.5,7.5-23,10.3c-5.3,0.5-45.5,8.4-48.1,15.4c-2,5.3-2.7,8.2-3.2,9.8l-0.1,0.5c-0.5,1.9,0,9.5,3.2,14.8
			c0.1,0.2,0.4,0.4,0.6,0.6c3.3,1.8,10.6,4.3,17.6,5.1c0.1,0,0.1,0,0.2,0c0,0,0,0,0,0c0.1,0,0.1,0,0.2,0c2.7,7.4,9.8,12.5,17.9,12.5
			c8,0,15-5.1,17.8-12.2c0.2,0.1,0.3,0.1,0.5,0.1h0.1c0,0,0,0,0,0l101.9-2c0.1,0,0.3,0,0.4-0.1c2.2,8.3,9.7,14.2,18.5,14.2
			c9.8,0,18.2-7.6,19.1-17.4c0.3,0,0.6,0,0.7,0c0.1,0,0.3,0,0.4,0l17.6-3.3c0.2,0,0.3-0.1,0.5-0.2c0.3-0.2,7.4-4.1,7.4-14.5
			C287.3,93,284.7,89.8,283.4,88.5z M118.1,116c-0.7,8.1-7.6,14.4-15.7,14.4c-7.9,0-14.7-5.9-15.6-13.8c-0.1-0.6-0.1-1.3-0.1-2
			c0-8.7,7.1-15.8,15.8-15.8c4.2,0,8.2,1.6,11.2,4.6c3,3,4.6,6.9,4.6,11.2C118.1,115.1,118.1,115.6,118.1,116z M257.3,116
			c-0.7,8.1-7.6,14.4-15.7,14.4c-7.9,0-14.7-5.9-15.6-13.8c-0.1-0.6-0.1-1.3-0.1-2c0-8.7,7.1-15.8,15.8-15.8c4.2,0,8.2,1.6,11.2,4.6
			c3,3,4.6,6.9,4.6,11.2C257.3,115.1,257.3,115.6,257.3,116z M278.5,110l-16.6,3.1l-0.3,0c-0.2,0-0.5,0-0.8,0
			c-0.6-11.4-8.1-18.6-19.3-18.6c-12.1,0-20.9,8.5-20.9,20.2c0,0.5,0,1.1,0.1,1.7l-97.9,1.9c0.1-0.6,0.2-1.2,0.2-1.8
			c0-0.6,0.1-1.2,0.1-1.8c0-11.9-8.4-20.2-20.4-20.2c-11.7,0-20.6,9.2-20.6,21.4c0,0.6,0,1.2,0.1,1.8c-5.5-0.9-11-2.7-13.8-4.1
			c-2.6-4.5-2.9-10.8-2.6-11.7l0.1-0.5c0.4-1.6,1.1-4.3,3.1-9.5c1.7-4.3,40-13.2,45.4-13.3c0.2,0,0.4-0.1,0.6-0.1
			c6.6-2.8,15.5-6.9,23.4-10.4c8.6-3.9,16.7-7.6,19.4-8.6c9.9-3.4,21-5.2,32.9-5.2c16.3,0,29.8,3.2,35.5,4.6l1.5,0.3
			c4.3,1,14.1,4.8,21.9,7.8c5,1.9,9.3,3.6,11.4,4.3c3.7,1.1,11.3,2.4,17.1,3.3c1.2,0.2,2,1.2,2,2.3v12.4c0,0.5,0.3,1,0.7,1.4
			c0.1,0.1,3.2,2.5,3.2,7.9C283.9,106.1,279.5,109.3,278.5,110z"/>
	</g>
	<g>
		<g>
			<path class="st1" d="M205.3,100.5l-7.6,15.7c-0.2,0.5,0,1.1,0.5,1.3c0.2,0.1,0.5,0.1,0.7,0c0.2-0.1,0.4-0.3,0.6-0.5l7.6-15.7
				c0.2-0.5,0-1.1-0.5-1.3S205.5,100,205.3,100.5z"/>
		</g>
		<g>
			<path class="st1" d="M192.1,93.1c-0.5-0.2-1.1,0-1.3,0.5l-7.6,15.7c-0.2,0.5,0,1.1,0.5,1.3c0.2,0.1,0.5,0.1,0.7,0
				c0.2-0.1,0.4-0.3,0.6-0.5l7.6-15.7C192.8,93.9,192.6,93.3,192.1,93.1z"/>
		</g>
		<g>
			<path class="st1" d="M194.5,107c0.2,0.1,0.5,0.1,0.7,0c0.2-0.1,0.4-0.3,0.6-0.5l2.5-5.1c0.2-0.5,0-1.1-0.5-1.3
				c-0.5-0.2-1.1,0-1.3,0.5l-2.5,5.1C193.8,106.2,194,106.7,194.5,107z"/>
		</g>
		<path class="st1" d="M233.2,30.6c-3.5-1.7-5.4,0.4-6.6,3.2c-1.8,4.7-17.2,36-19,40.8L193,67.5c-3.4-1.6-7.5-0.2-9.2,3.2l-1,2
			l1.3,0.6l0.3,0.2l-3.9,7.3c-0.5,1-0.2,2.3,0.9,2.8c0.5,0.3,1.1,0.3,1.7,0.1c0.5-0.2,0.9-0.5,1.1-1l4-7.5l1.5,0.7l-3.9,7.3
			c-0.5,1-0.2,2.3,0.9,2.8c0.5,0.3,1.1,0.3,1.7,0.1c0.5-0.2,0.9-0.5,1.1-1l4-7.5l2.1,1l-3.9,7.3c-0.5,1-0.2,2.3,0.9,2.8
			c0.5,0.3,1.1,0.3,1.7,0.1c0.5-0.2,0.9-0.5,1.1-1l4-7.5l2.1,1l-3.9,7.3c-0.5,1-0.2,2.3,0.9,2.8c0.5,0.3,1.1,0.3,1.7,0.1
			c0.5-0.2,0.9-0.5,1.1-1l4-7.5l2.1,1l-3.9,7.3c-0.5,1-0.2,2.3,0.9,2.8c0.5,0.3,1.1,0.3,1.7,0.1c0.5-0.2,0.9-0.5,1.1-1l4-7.5l2.1,1
			l-3.9,7.3c-0.5,1-0.2,2.3,0.9,2.8c0.5,0.3,1.1,0.3,1.7,0.1c0.5-0.2,0.9-0.5,1.1-1l4-7.5l2.1,1l-3.9,7.3c-0.5,1-0.2,2.3,0.9,2.8
			c0.5,0.3,1.1,0.3,1.7,0.1c0.5-0.2,0.9-0.5,1.1-1l4-7.5l2.1,1l-3.9,7.3c-0.5,1-0.2,2.3,0.9,2.8c0.5,0.3,1.1,0.3,1.7,0.1
			c0.5-0.2,0.9-0.5,1.1-1l4-7.5l0.2,0.1l1.3,0.6l1-2c1.6-3.4,0.2-7.5-3.2-9.2l-14.6-7.1c2.6-4.3,18.8-35.2,21.4-39.6
			C236.2,35.1,236.6,32.3,233.2,30.6z M232.4,35.8c-0.4,0.8-1.3,1.1-2.1,0.7c-0.8-0.4-1.1-1.3-0.7-2.1c0.4-0.8,1.3-1.1,2.1-0.7
			C232.4,34.1,232.8,35,232.4,35.8z"/>
	</g>
</g>
</svg>
