<?xml version="1.0" encoding="utf-8"?>
<!-- Generator: Adobe Illustrator 19.0.1, SVG Export Plug-In . SVG Version: 6.00 Build 0)  -->
<svg version="1.1" id="Слой_1" xmlns="http://www.w3.org/2000/svg" xmlns:xlink="http://www.w3.org/1999/xlink" x="0px" y="0px"
	 width="350px" height="150px" viewBox="0 0 350 150" style="enable-background:new 0 0 350 150;" xml:space="preserve">
<style type="text/css">
	.st0{fill:#5B9DE1;}
	.st1{fill:#363636;}
</style>
<g>
	<g>
		<g>
			<path class="st0" d="M185.9,135.2c-0.8,0-1.4-0.6-1.4-1.4l-0.1-3.5c0-0.6-0.9-15-0.8-17.8c0.1-7.7,1.7-12.4,2.1-13.5
				c0.1-0.8,0.5-2.8,3.2-9.2c1-2.3,1.9-7.1,1.9-10v-7.2c0-0.9-0.1-2.7-0.3-4.5c-0.1-1.8-0.3-3.4-0.3-4.3c0-18.1,9.2-18.5,9.6-18.5
				c2.6,0,4.7,0.8,6.3,2.4c3.7,3.7,3.5,10.3,3.5,10.5l0,9.8h8c0.8,0,0.4,0.6,0.4,1.4s0.4,1-0.4,1h-9.4c-0.8,0-1.4-0.6-1.4-1.4V58.1
				c0-0.1,0.1-5.7-2.7-8.5c-1.1-1.1-2.5-1.6-4.3-1.6c0,0-6.8,0.6-6.8,15.7c0,0.8,0.1,2.5,0.3,4.1c0.1,1.8,0.3,3.7,0.3,4.7v7.2
				c0,3.3-1,8.5-2.1,11.1c-2.6,6.1-3,8-3,8.6c0,0.1,0,0.3-0.1,0.4c0,0-1.9,4.6-2,12.6c0,2.7,0.8,17.6,0.8,17.7l0.1,3.5
				C187.3,134.5,186.7,135.1,185.9,135.2C185.9,135.2,185.9,135.2,185.9,135.2z"/>
		</g>
		<g>
			<path class="st0" d="M219.4,135.4c-0.8,0-1.4-0.6-1.4-1.4v-10.5c0,0,0-0.1,0-0.1c0-0.3,0.6-6.9,1.7-9.9c1.2-3.1,2.9-7.9,5.2-14
				c0.4-1,1.4-3.2,2.4-5.6c0.8-1.8,1.6-3.6,2.2-5c1.8-4.4,3.6-11,1.5-18.1c0,0,0-0.1,0-0.1l-2.7-13.5c-0.3-0.5-1.6-2.5-4.4-4.6V63
				c0,0.8-0.6,1.4-1.4,1.4h-13.3c-0.8,0-1.4-0.6-1.4-1.4c0-0.8,0.6-1.4,1.4-1.4h12.6V50c0-0.5-0.4-1,0-1.2c0.4-0.2,1-0.2,1.4,0
				c5.6,3.4,7.6,7.1,7.7,7.3c0.1,0.1,0.1,0.2,0.1,0.4l2.8,13.7c2.3,7.8,0.4,15.1-1.6,19.9c-0.6,1.4-1.4,3.2-2.2,5
				c-1,2.2-2,4.5-2.4,5.4c-2.3,6.2-4,10.9-5.2,14c-0.8,2.2-1.4,7.3-1.6,9.1V134C220.8,134.8,220.2,135.4,219.4,135.4z"/>
		</g>
		<g>
			<path class="st0" d="M212,82.9c-0.6,0-1.4-0.2-2.3-0.8c-2.3-1.7-3.3-5.9-3-12.8c0-0.8,0.7-1.4,1.5-1.3c0.8,0,1.4,0.7,1.3,1.5
				c-0.4,7.8,1.1,9.9,1.8,10.4c0.4,0.3,0.8,0.3,0.8,0.3c0.2-0.1,0.2-0.1,0.3-0.1c1-0.1,1.3-0.5,1.5-0.8c1.1-1.8-0.1-6.4-1.1-8.9
				c-0.3-0.7,0-1.5,0.8-1.8c0.7-0.3,1.5,0,1.8,0.8c0.3,0.8,3.1,7.8,0.9,11.4c-0.5,0.9-1.6,1.9-3.6,2.1
				C212.7,82.8,212.4,82.9,212,82.9z"/>
		</g>
		<g>
			<path class="st0" d="M186.6,83.7c-3,0-6.6-0.5-9-2.5c-1.7-1.4-2.6-3.4-2.6-5.8c0-0.5-0.1-2.4,1.7-4.3c2.5-2.7,7.5-3.9,14.7-3.5
				c0.8,0,1.4,0.7,1.3,1.5c0,0.8-0.7,1.4-1.5,1.3c-8.3-0.5-11.4,1.4-12.5,2.6c-1,1.1-0.9,2.1-0.9,2.1c0,0.1,0,0.1,0,0.2
				c0,1.6,0.5,2.9,1.6,3.7c3,2.5,9.8,1.9,12.1,1.4c0.8-0.1,1.5,0.3,1.6,1.1c0.1,0.8-0.3,1.5-1.1,1.6
				C191.8,83.3,189.5,83.7,186.6,83.7z"/>
		</g>
		<g>
			<path class="st0" d="M185,97.5c-2.7,0-4.8-0.7-6.4-2c-2.5-2.2-2.6-5.2-2.6-5.3c0-0.1,0-0.1,0-0.2c0.3-2.2,1.4-3.8,3.1-4.9
				c4.5-2.8,12.1-0.5,12.4-0.4c0.7,0.2,1.1,1,0.9,1.7c-0.2,0.7-1,1.1-1.7,0.9c-1.9-0.6-7.3-1.7-10.1,0.1c-1,0.6-1.6,1.6-1.8,2.8
				c0,0.4,0.2,2,1.6,3.2c1.5,1.2,4,1.6,7.3,1.1c0.8-0.1,1.5,0.4,1.6,1.1c0.1,0.8-0.4,1.5-1.1,1.6C187.1,97.4,186,97.5,185,97.5z"/>
		</g>
		<g>
			<path class="st0" d="M244.1,28.8H103.3c-3,0-5.4-2.4-5.4-5.4v-4.2c0-3,2.4-5.4,5.4-5.4h140.8c3,0,5.4,2.4,5.4,5.4v4.2
				C249.4,26.4,247,28.8,244.1,28.8z M103.3,16.7c-1.4,0-2.6,1.1-2.6,2.6v4.2c0,1.4,1.1,2.6,2.6,2.6h140.8c1.4,0,2.6-1.1,2.6-2.6
				v-4.2c0-1.4-1.1-2.6-2.6-2.6H103.3z"/>
		</g>
	</g>
	<g>
		<path class="st1" d="M222.5,64.5c-0.8,0-1.4-0.6-1.4-1.3V27.9c0-0.8,0.6-1.4,1.4-1.4s1.4,0.6,1.4,1.4v35.2
			C223.9,63.8,223.3,64.5,222.5,64.5z"/>
	</g>
	<g>
		<path class="st1" d="M189.6,70h-63.9c-0.8,0-1.4-0.6-1.4-1.4V32.1c0-0.8,0.6-1.4,1.4-1.4h3.3c0.8,0,1.4,0.6,1.4,1.4
			c0,0.8-0.6,1.4-1.4,1.4h-1.9v33.7h62.5c0.8,0,1.4,0.6,1.4,1.4C191,69.4,190.4,70,189.6,70z"/>
	</g>
	<g>
		<path class="st1" d="M188.8,64.6h-58.6c-0.8,0-1.4-0.6-1.4-1.4V27.9c0-0.8,0.6-1.4,1.4-1.4s1.4,0.6,1.4,1.4v34h57.2
			c0.8,0,1.4,0.6,1.4,1.4C190.2,64,189.6,64.6,188.8,64.6z"/>
	</g>
	<g>
		<path class="st1" d="M163.6,37.8L163.6,37.8l-2.7,1.3l-0.5-2.5l3.7-1.7h2.7V49h-3.2V37.8z"/>
		<path class="st1" d="M181.8,41.9c0,4.4-1.8,7.3-5.3,7.3c-3.6,0-5.2-3.3-5.3-7.3c0-4.1,1.7-7.3,5.4-7.3
			C180.3,34.7,181.8,38,181.8,41.9z M174.5,42c0,3.2,0.8,4.8,2,4.8c1.3,0,2-1.6,2-4.8c0-3.1-0.7-4.8-2-4.8
			C175.3,37.2,174.5,38.7,174.5,42z"/>
		<path class="st1" d="M193.8,41.9c0,4.4-1.8,7.3-5.3,7.3c-3.6,0-5.2-3.3-5.3-7.3c0-4.1,1.7-7.3,5.4-7.3
			C192.4,34.7,193.8,38,193.8,41.9z M186.5,42c0,3.2,0.8,4.8,2,4.8c1.3,0,2-1.6,2-4.8c0-3.1-0.7-4.8-2-4.8
			C187.3,37.2,186.5,38.7,186.5,42z"/>
	</g>
	<g>
		<path class="st1" d="M217.7,70.6c-0.8,0-1.4-0.9-1.4-1.7v-5.2c0-0.8,0.6-1.4,1.4-1.4c0.8,0,1.4,0.6,1.4,1.4v5.2
			C219.1,70.1,218.5,70.6,217.7,70.6z"/>
	</g>
	<g>
		<path class="st1" d="M209,63.1c0-0.8,0.6-1.4,1.4-1.4h11.8c0.8,0,1.4,0.6,1.4,1.4c0,0.8-0.6,1.4-1.4,1.4h-11.8
			C209.7,64.5,209,63.8,209,63.1z"/>
	</g>
	<g>
		<path class="st1" d="M209,69.2c0-0.8,0.6-1.4,1.4-1.4h7.1c0.8,0,1.4,0.6,1.4,1.4c0,0.8-0.6,1.4-1.4,1.4h-7.1
			C209.7,70.6,209,70,209,69.2z"/>
	</g>
</g>
</svg>
