<?xml version="1.0" encoding="utf-8"?>
<!-- Generator: Adobe Illustrator 19.0.1, SVG Export Plug-In . SVG Version: 6.00 Build 0)  -->
<svg version="1.1" id="Слой_1" xmlns="http://www.w3.org/2000/svg" xmlns:xlink="http://www.w3.org/1999/xlink" x="0px" y="0px"
	 width="350px" height="150px" viewBox="0 0 350 150" style="enable-background:new 0 0 350 150;" xml:space="preserve">
<style type="text/css">
	.st0{fill:#363636;}
	.st1{fill:#5E9AD4;}
</style>
<g>
	<g>
		<path class="st0" d="M235.7,112.4l-3.5-3.5c-1.1,1.5-1.8,3.2-2.1,5.1h5C235.2,113.3,235.4,112.8,235.7,112.4z"/>
		<path class="st0" d="M235.1,116.9h-5c0.3,1.9,1,3.6,2.1,5.1l3.6-3.6C235.4,117.9,235.2,117.4,235.1,116.9z"/>
		<path class="st0" d="M234.3,124.1c1.4,1.1,3.2,1.8,5,2.1v-5c-0.5-0.1-1-0.3-1.5-0.6L234.3,124.1z"/>
		<path class="st0" d="M237.8,110.2c0.5-0.3,1-0.5,1.5-0.6v-5c-1.9,0.3-3.6,1-5.1,2.1L237.8,110.2z"/>
		<path class="st0" d="M247.4,106.7c-1.5-1.1-3.2-1.8-5.1-2.1v5c0.5,0.1,1.1,0.4,1.5,0.6L247.4,106.7z"/>
		<path class="st0" d="M242.4,121.2v5c1.9-0.3,3.6-1,5-2.1l-3.5-3.5C243.4,120.8,242.9,121,242.4,121.2z"/>
		<path class="st0" d="M246,118.4l3.6,3.6c1.1-1.5,1.8-3.2,2.1-5.1h-5C246.5,117.4,246.3,117.9,246,118.4z"/>
		<path class="st0" d="M246,112.4c0.3,0.5,0.5,1,0.6,1.5v0h5c-0.3-1.9-1-3.6-2.1-5.1L246,112.4z"/>
		<path class="st0" d="M97.1,112.4l-3.5-3.5c-1.1,1.5-1.8,3.2-2.1,5.1h5C96.6,113.3,96.8,112.8,97.1,112.4z"/>
		<path class="st0" d="M96.5,116.9h-5c0.3,1.9,1,3.6,2.1,5.1l3.6-3.6C96.9,117.9,96.6,117.4,96.5,116.9z"/>
		<path class="st0" d="M95.7,124.1c1.4,1.1,3.2,1.8,5,2.1v-5c-0.5-0.1-1-0.3-1.5-0.6L95.7,124.1z"/>
		<path class="st0" d="M99.2,110.2c0.5-0.3,1-0.5,1.5-0.6v-5c-1.9,0.3-3.6,1-5.1,2.1L99.2,110.2z"/>
		<path class="st0" d="M108.9,106.7c-1.5-1.1-3.2-1.8-5.1-2.1v5c0.5,0.1,1.1,0.4,1.5,0.6L108.9,106.7z"/>
		<path class="st0" d="M103.8,121.2v5c1.9-0.3,3.6-1,5-2.1l-3.5-3.5C104.8,120.8,104.3,121,103.8,121.2z"/>
		<path class="st0" d="M107.4,118.4l3.6,3.6c1.1-1.5,1.8-3.2,2.1-5.1h-5C107.9,117.4,107.7,117.9,107.4,118.4z"/>
		<path class="st0" d="M107.4,112.4c0.3,0.5,0.5,1,0.6,1.5v0h5c-0.3-1.9-1-3.6-2.1-5.1L107.4,112.4z"/>
		<path class="st0" d="M241,69.5l-1.7-0.9c-4.1-2.1-11.7-6.1-17.8-8.6c-0.7-0.3-1.5,0-2,0.6c-0.4,0.6-0.4,1.5,0.1,2.1l12.7,15
			c0.3,0.4,0.8,0.6,1.3,0.6h9.4c0.8,0,1.5-0.6,1.6-1.4C245.2,73.9,243.7,71,241,69.5z M234.4,74.9l-7.5-8.9c4.2,2,8.3,4.1,10.9,5.5
			l1.7,0.9c1,0.5,1.6,1.4,1.9,2.4H234.4z"/>
		<path class="st0" d="M188.5,57.9c-0.3-0.4-0.8-0.6-1.3-0.6c-1.2,0-30.4,0.6-45.4,14.2c-1.4,0.9-5.3,3.9-4.4,6.7
			c0.8,2.7,4.7,3,8.1,3c0,0,0,0,0,0l37.1-1.1c0.8,0,1.4-0.5,1.6-1.3l4.8-19.5C188.9,58.8,188.8,58.3,188.5,57.9z M181.1,76.8
			l-35.7,1.1c-3.7,0-4.7-0.6-4.8-0.6c0,0,0,0,0,0c0.1-0.6,1.6-2.1,3.1-3.1c0.1,0,0.1-0.1,0.2-0.2C155.7,63.3,178,61.1,185,60.7
			L181.1,76.8z"/>
		<path class="st0" d="M282.5,89.4V77.8c0-2.8-2-5.2-4.8-5.6c-4.6-0.7-12.9-2.1-16.5-3.2c-2-0.6-6.2-2.3-11.1-4.2
			c-8.3-3.2-17.7-6.9-22.3-7.9l-1.4-0.3c-5.8-1.4-19.5-4.7-36.1-4.7c-12.3,0-23.7,1.8-33.9,5.3c-2.8,1-10.6,4.5-19.6,8.6
			c-7.7,3.5-16.4,7.5-22.9,10.3c-5.2,0.5-45.3,8.4-47.8,15.4c-2,5.3-2.7,8.2-3.1,9.7l-0.1,0.5c-0.5,1.9,0,9.4,3.2,14.7
			c0.1,0.2,0.4,0.4,0.6,0.6c3.3,1.8,10.5,4.2,17.6,5c0.1,0,0.1,0,0.2,0c0,0,0,0,0,0c0.1,0,0.1,0,0.2,0c2.7,7.3,9.7,12.5,17.9,12.5
			c8,0,15-5.1,17.8-12.2c0.2,0.1,0.3,0.1,0.5,0.1h0.1c0,0,0,0,0,0l101.4-2c0.1,0,0.3-0.1,0.4-0.1c2.2,8.2,9.7,14.2,18.4,14.2
			c9.8,0,18.1-7.6,19-17.3c0.3,0,0.6,0,0.7,0c0.1,0,0.3,0,0.4,0l17.6-3.3c0.2,0,0.3-0.1,0.5-0.2c0.3-0.2,7.4-4,7.4-14.5
			C286.4,93.8,283.8,90.6,282.5,89.4z M117.9,116.7c-0.7,8.1-7.6,14.4-15.7,14.4c-7.9,0-14.6-5.9-15.6-13.7c-0.1-0.6-0.1-1.3-0.1-2
			c0-8.7,7.1-15.7,15.7-15.7c4.2,0,8.1,1.6,11.1,4.6c3,3,4.6,6.9,4.6,11.1C118,115.8,118,116.3,117.9,116.7z M256.5,116.7
			c-0.7,8.1-7.6,14.4-15.7,14.4c-7.9,0-14.6-5.9-15.6-13.7c-0.1-0.6-0.1-1.3-0.1-2c0-8.7,7.1-15.7,15.7-15.7c4.2,0,8.1,1.6,11.1,4.6
			c3,3,4.6,6.9,4.6,11.1C256.6,115.8,256.5,116.3,256.5,116.7z M277.6,110.7l-16.5,3.1l-0.3,0c-0.2,0-0.5,0-0.8,0
			c-0.6-11.3-8-18.6-19.2-18.6c-12.1,0-20.8,8.5-20.8,20.2c0,0.5,0,1.1,0.1,1.6l-97.5,1.9c0.1-0.6,0.2-1.2,0.2-1.8
			c0-0.6,0.1-1.2,0.1-1.8c0-11.9-8.4-20.2-20.3-20.2c-11.7,0-20.5,9.2-20.5,21.3c0,0.6,0,1.2,0.1,1.8c-5.5-0.9-10.9-2.6-13.8-4.1
			c-2.6-4.5-2.8-10.7-2.6-11.7L66,102c0.4-1.6,1.1-4.3,3-9.4c1.7-4.3,39.8-13.1,45.1-13.2c0.2,0,0.4-0.1,0.6-0.1
			c6.6-2.8,15.5-6.8,23.3-10.4c8.6-3.9,16.6-7.6,19.3-8.5c9.9-3.4,20.9-5.2,32.8-5.2c16.2,0,29.6,3.2,35.4,4.6l1.5,0.3
			c4.3,1,14,4.8,21.8,7.8c5,1.9,9.2,3.6,11.3,4.2c3.6,1.1,11.3,2.4,17,3.3c1.1,0.2,2,1.2,2,2.3v12.3c0,0.5,0.3,1,0.7,1.3
			c0.1,0.1,3.2,2.5,3.2,7.8C283,106.8,278.6,110,277.6,110.7z"/>
		<path class="st0" d="M215,59.9c-0.1-0.1-0.2-0.2-0.2-0.2c-0.6-0.4-4.3-2.7-21.5-2.4c-0.8,0-1.5,0.6-1.6,1.4l-3.1,18.9
			c-0.1,0.5,0.1,1,0.4,1.4c0.3,0.4,0.8,0.6,1.3,0.6c0,0,0,0,0.1,0l37.2-1.1c0.6,0,1.2-0.4,1.5-1c0.3-0.6,0.2-1.3-0.3-1.8L215,59.9z
			 M192.2,76.1l2.5-15.5c13.6-0.1,17.4,1.5,18,1.7l11.2,12.8L192.2,76.1z"/>
	</g>
	<g>
		<path class="st1" d="M114,49.2l-6.9-19.6c-0.3-0.9-1.1-1.5-2.1-1.5s-1.7,0.6-2.1,1.5l-6.9,19.6c-1,2.9-0.6,6.1,1.2,8.6
			c1.8,2.5,4.6,4,7.7,4s5.9-1.5,7.7-4C114.6,55.2,115,52.1,114,49.2z M109.3,55.3c-1,1.4-2.5,2.2-4.2,2.2c-1.7,0-3.2-0.8-4.2-2.2
			c-1-1.4-1.2-3.1-0.7-4.7l4.8-13.8l4.8,13.8C110.5,52.2,110.2,53.9,109.3,55.3z"/>
		<path class="st1" d="M90.6,52.9c-0.3-0.9-1.1-1.5-2.1-1.5c-0.9,0-1.7,0.6-2.1,1.5l-5.7,16.3c-0.9,2.5-0.5,5.3,1.1,7.5
			s4.1,3.5,6.7,3.5s5.2-1.3,6.7-3.5c1.5-2.2,1.9-5,1.1-7.5L90.6,52.9z M91.8,74.1c-0.7,1-1.9,1.6-3.2,1.6s-2.4-0.6-3.2-1.6
			c-0.7-1-0.9-2.3-0.5-3.5l3.7-10.5l3.7,10.5C92.7,71.8,92.5,73.1,91.8,74.1z"/>
		<path class="st1" d="M82,50.9c1.2-1.8,1.6-4,0.8-6l-4.2-12c-0.3-0.9-1.1-1.5-2.1-1.5s-1.7,0.6-2.1,1.5l-4.2,12
			c-0.7,2-0.4,4.3,0.8,6c1.2,1.8,3.3,2.8,5.4,2.8S80.7,52.6,82,50.9z M78.4,48.4c-0.4,0.6-1.1,1-1.9,1s-1.4-0.4-1.9-1
			c-0.4-0.6-0.5-1.4-0.3-2.1l2.2-6.2l2.2,6.2C79,47,78.8,47.7,78.4,48.4z"/>
	</g>
</g>
</svg>
