<?xml version="1.0" encoding="utf-8"?>
<!-- Generator: Adobe Illustrator 19.0.1, SVG Export Plug-In . SVG Version: 6.00 Build 0)  -->
<svg version="1.1" id="Слой_1" xmlns="http://www.w3.org/2000/svg" xmlns:xlink="http://www.w3.org/1999/xlink" x="0px" y="0px"
	 width="350px" height="150px" viewBox="0 0 350 150" style="enable-background:new 0 0 350 150;" xml:space="preserve">
<style type="text/css">
	.st0{fill:#363636;}
	.st1{fill:#FFFFFF;}
	.st2{fill:#5B9DE1;}
</style>
<g>
	<g>
		<path class="st0" d="M236.3,111.9l-3.6-3.6c-1.1,1.5-1.8,3.2-2.1,5.1h5C235.8,112.9,236,112.4,236.3,111.9z"/>
		<path class="st0" d="M235.6,116.5h-5.1c0.3,1.9,1,3.6,2.1,5.1l3.6-3.6C236,117.5,235.8,117,235.6,116.5z"/>
		<path class="st0" d="M234.9,123.7c1.5,1.1,3.2,1.8,5.1,2.1v-5c-0.5-0.1-1-0.3-1.5-0.6L234.9,123.7z"/>
		<path class="st0" d="M238.4,109.8c0.5-0.3,1-0.5,1.5-0.6v-5c-1.9,0.3-3.6,1-5.1,2.1L238.4,109.8z"/>
		<path class="st0" d="M248,106.2c-1.5-1.1-3.2-1.8-5.1-2.1l0,5c0.5,0.1,1.1,0.4,1.5,0.6L248,106.2z"/>
		<path class="st0" d="M242.9,120.7v5c1.9-0.3,3.6-1,5.1-2.1l-3.5-3.5C244,120.4,243.5,120.6,242.9,120.7z"/>
		<path class="st0" d="M246.6,118l3.6,3.6c1.1-1.5,1.8-3.2,2.1-5.1h-5C247.1,117,246.9,117.5,246.6,118z"/>
		<path class="st0" d="M246.6,111.9c0.3,0.5,0.5,1,0.6,1.5v0h5c-0.3-1.9-1-3.6-2.1-5.1L246.6,111.9z"/>
		<path class="st0" d="M97.2,111.9l-3.6-3.6c-1.1,1.5-1.8,3.2-2.1,5.1h5C96.7,112.9,96.9,112.4,97.2,111.9z"/>
		<path class="st0" d="M96.6,116.5h-5.1c0.3,1.9,1,3.6,2.1,5.1l3.6-3.6C97,117.5,96.8,117,96.6,116.5z"/>
		<path class="st0" d="M95.8,123.7c1.5,1.1,3.2,1.8,5.1,2.1v-5c-0.5-0.1-1-0.3-1.5-0.6L95.8,123.7z"/>
		<path class="st0" d="M95.8,106.2l3.6,3.6c0.5-0.3,1-0.5,1.5-0.6l0-5C99,104.4,97.3,105.1,95.8,106.2z"/>
		<path class="st0" d="M109,106.2c-1.5-1.1-3.2-1.8-5.1-2.1v5c0.5,0.1,1.1,0.4,1.5,0.6L109,106.2z"/>
		<path class="st0" d="M103.9,120.7v5c1.9-0.3,3.6-1,5.1-2.1l-3.5-3.5C105,120.4,104.5,120.6,103.9,120.7z"/>
		<path class="st0" d="M107.6,118l3.6,3.6c1.1-1.5,1.8-3.2,2.1-5.1h-5C108.1,117,107.8,117.5,107.6,118z"/>
		<path class="st0" d="M107.6,111.9c0.3,0.5,0.5,1,0.6,1.5v0h5c-0.3-1.9-1-3.6-2.1-5.1L107.6,111.9z"/>
		<path class="st0" d="M188.9,57.3c-0.3-0.4-0.8-0.6-1.3-0.6c-1.2,0-30.5,0.6-45.6,14.2c-1.4,0.9-5.3,3.9-4.4,6.8
			c0.8,2.7,4.7,3.1,8.1,3.1c0,0,0,0,0,0l37.2-1.1c0.8,0,1.4-0.5,1.6-1.3l4.8-19.6C189.3,58.2,189.2,57.7,188.9,57.3z M181.5,76.2
			l-35.9,1.1c-3.7,0-4.7-0.6-4.8-0.6c0,0,0,0,0,0c0.1-0.6,1.6-2.1,3.1-3.1c0.1,0,0.1-0.1,0.2-0.2c11.9-10.8,34.2-12.9,41.3-13.3
			L181.5,76.2z"/>
		<path class="st0" d="M283.2,88.8V77.2c0-2.8-2-5.2-4.8-5.6c-4.6-0.7-12.9-2.1-16.6-3.2c-2-0.6-6.2-2.3-11.1-4.2
			c-8.3-3.2-17.8-6.9-22.3-8l-1.4-0.3c-5.9-1.4-19.6-4.7-36.3-4.7c-12.3,0-23.7,1.8-34,5.4c-2.9,1-10.7,4.5-19.7,8.7
			c-7.7,3.5-16.5,7.5-23,10.3c-5.3,0.5-45.4,8.4-48,15.4c-2,5.3-2.7,8.2-3.2,9.8l-0.1,0.5c-0.5,1.9,0,9.5,3.2,14.7
			c0.1,0.2,0.4,0.4,0.6,0.6c3.3,1.8,10.6,4.2,17.6,5.1c0.1,0,0.1,0,0.2,0c0,0,0,0,0,0c0.1,0,0.1,0,0.2,0c2.7,7.4,9.8,12.5,17.9,12.5
			c8,0,15-5.1,17.8-12.2c0.2,0.1,0.3,0.1,0.5,0.1h0.1c0,0,0,0,0,0l101.8-2c0.1,0,0.3,0,0.4-0.1c2.2,8.3,9.7,14.2,18.4,14.2
			c9.8,0,18.1-7.6,19-17.4c0.3,0,0.6,0,0.7,0c0.1,0,0.3,0,0.4,0l17.6-3.3c0.2,0,0.3-0.1,0.5-0.2c0.3-0.2,7.4-4.1,7.4-14.5
			C287.1,93.3,284.5,90.1,283.2,88.8z M118.1,116.3c-0.7,8.1-7.6,14.4-15.7,14.4c-7.9,0-14.6-5.9-15.6-13.8c-0.1-0.6-0.1-1.3-0.1-2
			c0-8.7,7.1-15.8,15.8-15.8c4.2,0,8.2,1.6,11.2,4.6c3,3,4.6,6.9,4.6,11.1C118.2,115.4,118.1,115.8,118.1,116.3z M257.1,116.3
			c-0.7,8.1-7.6,14.4-15.7,14.4c-7.9,0-14.6-5.9-15.6-13.8c-0.1-0.6-0.1-1.3-0.1-2c0-8.7,7.1-15.8,15.8-15.8c4.2,0,8.2,1.6,11.2,4.6
			c3,3,4.6,6.9,4.6,11.1C257.2,115.4,257.2,115.8,257.1,116.3z M278.3,110.2l-16.6,3.1l-0.3,0c-0.2,0-0.5,0-0.8,0
			c-0.6-11.4-8.1-18.6-19.3-18.6c-12.1,0-20.9,8.5-20.9,20.2c0,0.5,0,1.1,0.1,1.6l-97.8,1.9c0.1-0.6,0.2-1.2,0.2-1.8
			c0-0.6,0.1-1.2,0.1-1.8c0-11.9-8.4-20.2-20.4-20.2c-11.7,0-20.6,9.2-20.6,21.4c0,0.6,0,1.2,0.1,1.8c-5.5-0.9-11-2.7-13.8-4.1
			c-2.6-4.5-2.9-10.7-2.6-11.7l0.1-0.5c0.4-1.6,1.1-4.3,3.1-9.5c1.7-4.3,39.9-13.1,45.3-13.3c0.2,0,0.4-0.1,0.6-0.1
			c6.6-2.8,15.5-6.9,23.4-10.4c8.6-3.9,16.7-7.6,19.4-8.6c9.9-3.4,21-5.2,32.9-5.2c16.3,0,29.7,3.2,35.5,4.6l1.5,0.3
			c4.3,1,14.1,4.8,21.9,7.8c5,1.9,9.3,3.6,11.4,4.3c3.7,1.1,11.3,2.4,17.1,3.3c1.2,0.2,2,1.2,2,2.3v12.4c0,0.5,0.3,1,0.7,1.3
			c0.1,0.1,3.2,2.5,3.2,7.9C283.8,106.4,279.3,109.6,278.3,110.2z"/>
		<path class="st0" d="M241.6,68.9l-1.7-0.9c-4.1-2.2-11.7-6.2-17.9-8.6c-0.7-0.3-1.5,0-2,0.6c-0.4,0.6-0.4,1.5,0.1,2.1l12.8,15.1
			c0.3,0.4,0.8,0.6,1.3,0.6h9.4c0.8,0,1.5-0.6,1.7-1.4C245.8,73.3,244.3,70.4,241.6,68.9z M234.9,74.4l-7.5-8.9
			c4.2,2,8.3,4.2,10.9,5.5l1.8,0.9c1,0.5,1.6,1.4,1.9,2.4H234.9z"/>
		<path class="st0" d="M215.5,59.3c-0.1-0.1-0.2-0.2-0.2-0.2c-0.6-0.4-4.3-2.7-21.6-2.5c-0.8,0-1.5,0.6-1.6,1.4L189,77
			c-0.1,0.5,0.1,1,0.4,1.4c0.3,0.4,0.8,0.6,1.3,0.6c0,0,0,0,0.1,0l37.3-1.1c0.6,0,1.2-0.4,1.5-1c0.3-0.6,0.2-1.3-0.3-1.8L215.5,59.3
			z M192.6,75.6l2.5-15.6c13.7-0.1,17.5,1.5,18,1.7l11.2,12.9L192.6,75.6z"/>
	</g>
	<g>
		<path class="st1" d="M167.4,86.9c0.6,0,1.1,0,1.7,0.1c4.5,0.5,8.5,2.9,11.1,6.6c2-0.7,4.1-1,6.2-0.8c1.1,0.1,2.1,0.4,3.1,0.7
			c2.7-2.1,6-3.2,9.5-3.2c0.6,0,1.1,0,1.7,0.1c6,0.7,11.1,4.8,13,10.5c0.9-0.2,1.9-0.4,2.7-0.6l0.3-0.1c0.5-0.2,1.1-0.3,1.8-0.3
			c1.4,0,3,0.4,3.3,0.5c4.9,1.1,8.5,5.6,8.5,10.6c0,4.8-3.1,9-7.6,10.4c-2.1,4.1-6.4,6.8-11.1,6.8c-3.6,0-7-1.6-9.3-4.2
			c-1.5,0.7-3.1,1.1-4.8,1.1c-0.8,0-1.6-0.1-2.4-0.3c-2.3,2.2-5.4,3.4-8.5,3.4c-5.1,0-9.8-3.2-11.6-8c-0.2-0.6-0.6-0.8-0.7-0.9
			c0,0,0,0-0.1,0.1c-1.4,1.7-3.2,3-5.3,3.6c-2.1,4.1-6.4,6.8-11.1,6.8c-3.6,0-7-1.6-9.3-4.2c-1.5,0.7-3.1,1.1-4.8,1.1
			c-0.8,0-1.6-0.1-2.4-0.3c-2.3,2.2-5.4,3.4-8.5,3.4c-6.9,0-12.5-5.6-12.5-12.5c0-3.7,1.7-7.3,4.6-9.6c2.8-2.4,6.2-2.8,7.9-2.8h0
			c0.5,0,0.9,0,1,0c1.6,0.1,3.2,0.6,4.6,1.3c1.6-0.9,3.4-1.4,5.3-1.4c0.1,0,0.1,0,0.2,0c0.9-5.6,5.2-10,10.8-11
			C157.3,89.6,162.2,86.9,167.4,86.9z"/>
	</g>
	<path class="st2" d="M221.7,100c-0.3-0.1-1.9-0.5-3.4-0.5c-0.8,0-1.4,0.1-2,0.3l-0.2,0c-0.6,0.1-1.4,0.3-2.2,0.5
		c-2.1-5.7-7.2-9.7-13.3-10.4c-4-0.4-8,0.7-11.3,3.1c-0.9-0.3-1.9-0.5-2.9-0.6c-2.1-0.2-4.1,0-6.1,0.7c-2.7-3.7-6.7-6-11.2-6.5
		c-0.6-0.1-1.2-0.1-1.7-0.1c-5.3,0-10.3,2.7-13.3,7.1c-5.5,1.1-9.8,5.5-10.9,11c-1.8,0-3.5,0.5-5.1,1.3c-1.4-0.7-3-1.1-4.6-1.3
		c-0.1,0-0.5,0-1.1,0c-1.8,0-5.3,0.4-8.3,2.9c-3,2.5-4.8,6.1-4.8,10c0,7.1,5.8,13,13,13c3.2,0,6.3-1.2,8.7-3.4
		c2.3,0.5,4.8,0.2,6.9-0.8c2.5,2.6,5.9,4.1,9.5,4.1c4.7,0,9.2-2.7,11.4-6.8c1.9-0.6,3.7-1.8,5.1-3.4c0.1,0.1,0.1,0.2,0.2,0.3
		c1.9,5,6.8,8.3,12.1,8.3c3.2,0,6.3-1.2,8.7-3.4c2.3,0.5,4.8,0.2,6.9-0.8c2.5,2.6,5.9,4.1,9.5,4.1c4.7,0,9.2-2.7,11.4-6.8
		c4.7-1.6,7.8-5.9,7.8-10.8C230.6,105.9,226.9,101.2,221.7,100z M227.5,111.1c0,3.7-2.5,7-6.2,8c-0.5,0.1-0.8,0.4-1,0.9
		c-1.6,3.5-5.1,5.7-8.9,5.7c-3,0-6-1.5-7.8-3.9c-0.5-0.6-1.4-0.8-2-0.4c-1.9,1.1-4.4,1.5-6.5,0.8c-0.6-0.2-1.2,0-1.6,0.4
		c-1.8,1.9-4.4,3-7.1,3c-4,0-7.7-2.5-9.2-6.3c-0.6-1.5-1.8-2.5-3.1-2.5c-0.8,0-1.6,0.4-2.2,1.1c-1.1,1.4-2.7,2.4-4.4,2.9
		c-0.5,0.1-0.8,0.4-1,0.9c-1.6,3.5-5.1,5.7-8.9,5.7c-3,0-6-1.5-7.8-3.9c-0.5-0.6-1.4-0.8-2-0.4c-1.9,1.2-4.4,1.5-6.5,0.8
		c-0.6-0.2-1.2,0-1.6,0.4c-1.9,1.9-4.4,3-7.1,3c-5.4,0-9.8-4.4-9.8-9.8c0-3,1.3-5.7,3.7-7.6c2.2-1.9,4.8-2.2,6.2-2.2
		c0.4,0,0.7,0,0.8,0c1.5,0.1,2.8,0.5,4.1,1.3c0.5,0.3,1.1,0.3,1.6,0c1.3-0.8,2.9-1.3,4.4-1.3c0.3,0,0.6,0,1,0.1
		c0.4,0.1,0.8-0.1,1.2-0.3c0.3-0.3,0.5-0.7,0.6-1.1l0-0.2c0.5-4.9,4.3-8.8,9.2-9.5c0.5-0.1,0.9-0.3,1.1-0.7
		c2.5-4.2,7.4-6.6,12.3-6.1c3.9,0.4,7.5,2.7,9.6,6.1c0.4,0.7,1.3,0.9,2,0.6c1.8-0.8,3.7-1.1,5.7-0.9c1,0.1,2,0.4,2.9,0.7
		c0.5,0.2,1.2,0.1,1.6-0.2c2.3-1.9,5.2-3,8.3-3c0.5,0,0.9,0,1.4,0.1c5.3,0.6,9.7,4.4,11,9.6c0.1,0.4,0.4,0.8,0.8,1
		c0.4,0.2,0.9,0.2,1.3,0c0.8-0.3,2.3-0.6,3.2-0.8l0.5-0.1c0.2,0,0.3-0.1,0.4-0.2c0,0,0.2-0.1,0.7-0.1c1.1,0,2.5,0.4,2.6,0.4l0.1,0
		C224.7,103.9,227.5,107.3,227.5,111.1z"/>
	<circle class="st1" cx="236" cy="89.5" r="9.6"/>
	<circle class="st1" cx="255" cy="73.9" r="7"/>
	<circle class="st1" cx="262.2" cy="94.7" r="5.7"/>
	<path class="st1" d="M272.3,74.7c-1.2,1.6-0.9,3.9,0.7,5.2c1.6,1.2,3.9,0.9,5.2-0.7L272.3,74.7z"/>
	<g>
		<path class="st2" d="M236,100.7c-2.5,0-4.8-0.8-6.8-2.3c-2.4-1.8-3.9-4.5-4.3-7.4c-0.4-3,0.4-5.9,2.2-8.3c2.1-2.8,5.4-4.4,8.9-4.4
			c2.5,0,4.8,0.8,6.8,2.3c2.4,1.8,3.9,4.5,4.3,7.4c0.4,3-0.4,5.9-2.2,8.3C242.8,99.1,239.5,100.7,236,100.7z M236,81.5
			c-2.5,0-4.8,1.1-6.3,3.1c-1.3,1.7-1.8,3.8-1.6,5.9c0.3,2.1,1.4,4,3.1,5.3c1.4,1.1,3.1,1.6,4.8,1.6c2.5,0,4.8-1.1,6.3-3.1
			c1.3-1.7,1.8-3.8,1.6-5.9c-0.3-2.1-1.4-4-3.1-5.3C239.4,82.1,237.7,81.5,236,81.5z"/>
	</g>
	<g>
		<path class="st2" d="M255,82.5c-1.9,0-3.7-0.6-5.2-1.8c-1.8-1.4-3-3.4-3.3-5.7c-0.3-2.3,0.3-4.5,1.7-6.4c1.6-2.2,4.1-3.4,6.9-3.4
			c1.9,0,3.7,0.6,5.2,1.8c1.8,1.4,3,3.4,3.3,5.7c0.3,2.3-0.3,4.5-1.7,6.4C260.2,81.2,257.7,82.5,255,82.5z M255,68.5
			c-1.7,0-3.2,0.8-4.3,2.1c-0.9,1.1-1.2,2.5-1,4c0.2,1.4,0.9,2.7,2.1,3.5c0.9,0.7,2.1,1.1,3.2,1.1c1.7,0,3.2-0.8,4.3-2.1
			c0.9-1.1,1.2-2.5,1-4c-0.2-1.4-0.9-2.7-2.1-3.5C257.3,68.9,256.2,68.5,255,68.5z"/>
	</g>
	<g>
		<path class="st2" d="M262.2,102c-1.6,0-3.1-0.5-4.4-1.5c-1.6-1.2-2.5-2.9-2.8-4.8c-0.3-1.9,0.2-3.9,1.4-5.4
			c1.4-1.8,3.5-2.9,5.8-2.9c1.6,0,3.1,0.5,4.4,1.5c3.2,2.4,3.8,7,1.4,10.2C266.6,100.9,264.5,102,262.2,102z M262.2,90.6
			c-1.3,0-2.4,0.6-3.2,1.6c-0.7,0.9-0.9,1.9-0.8,3c0.1,1.1,0.7,2,1.6,2.7c0.7,0.5,1.6,0.8,2.4,0.8c1.3,0,2.4-0.6,3.2-1.6
			c1.3-1.8,1-4.3-0.8-5.7C263.9,90.9,263.1,90.6,262.2,90.6z"/>
	</g>
	<g>
		<path class="st2" d="M275.2,82.3c-1.2,0-2.3-0.4-3.2-1.1c-2.3-1.8-2.8-5.1-1-7.5c0.5-0.7,1.6-0.9,2.3-0.3c0.7,0.5,0.9,1.6,0.3,2.3
			c-0.7,0.9-0.5,2.2,0.4,2.9c0.4,0.3,1,0.5,1.5,0.4c0.5-0.1,1-0.4,1.4-0.8c0.5-0.7,1.6-0.9,2.3-0.3c0.7,0.5,0.9,1.6,0.3,2.3
			c-0.9,1.1-2.1,1.9-3.5,2.1C275.7,82.3,275.4,82.3,275.2,82.3z"/>
	</g>
	<circle class="st1" cx="129.3" cy="93.7" r="10.3"/>
	<circle class="st1" cx="115.6" cy="78.3" r="6.4"/>
	<g>
		<path class="st2" d="M129.3,105.7L129.3,105.7c-3.8,0-7.3-1.7-9.5-4.7c-4-5.3-3-12.8,2.3-16.8c2.1-1.6,4.6-2.5,7.3-2.5
			c3.8,0,7.3,1.7,9.5,4.7c4,5.3,3,12.8-2.3,16.8C134.4,104.9,131.9,105.7,129.3,105.7z M129.3,85.2c-1.9,0-3.7,0.6-5.2,1.7
			c-3.7,2.8-4.4,8.2-1.6,11.9c1.6,2.1,4.1,3.3,6.8,3.3c1.9,0,3.7-0.6,5.2-1.7c3.7-2.8,4.4-8.2,1.6-11.9
			C134.4,86.4,131.9,85.2,129.3,85.2z"/>
	</g>
	<g>
		<path class="st2" d="M115.6,86.5L115.6,86.5c-2.6,0-4.9-1.2-6.5-3.2c-2.7-3.6-2-8.7,1.5-11.5c1.4-1.1,3.1-1.7,5-1.7
			c2.6,0,4.9,1.2,6.5,3.2c2.7,3.6,2,8.7-1.5,11.5C119.2,85.9,117.4,86.5,115.6,86.5z M115.6,73.6c-1,0-2,0.3-2.8,1
			c-2.1,1.6-2.4,4.5-0.9,6.6c0.9,1.2,2.2,1.8,3.7,1.8c1,0,2-0.3,2.8-1c2-1.6,2.4-4.5,0.9-6.6C118.5,74.3,117.1,73.6,115.6,73.6z"/>
	</g>
</g>
</svg>
