<?xml version="1.0" encoding="utf-8"?>
<!-- Generator: Adobe Illustrator 19.0.1, SVG Export Plug-In . SVG Version: 6.00 Build 0)  -->
<svg version="1.1" id="Слой_1" xmlns="http://www.w3.org/2000/svg" xmlns:xlink="http://www.w3.org/1999/xlink" x="0px" y="0px"
	 width="350px" height="150px" viewBox="0 0 350 150" style="enable-background:new 0 0 350 150;" xml:space="preserve">
<style type="text/css">
	.st0{fill:#363636;}
	.st1{fill:#5E9AD4;}
</style>
<g>
	<g>
		<path class="st0" d="M236.9,112.6l-3.6-3.6c-1.1,1.5-1.8,3.2-2.1,5.1h5C236.4,113.6,236.6,113.1,236.9,112.6z"/>
		<path class="st0" d="M236.3,117.2h-5.1c0.3,1.9,1,3.6,2.1,5.1l3.6-3.6C236.6,118.2,236.4,117.7,236.3,117.2z"/>
		<path class="st0" d="M235.5,124.4c1.5,1.1,3.2,1.8,5.1,2.1v-5c-0.5-0.1-1-0.3-1.5-0.6L235.5,124.4z"/>
		<path class="st0" d="M239,110.5c0.5-0.3,1-0.5,1.5-0.6v-5c-1.9,0.3-3.6,1-5.1,2.1L239,110.5z"/>
		<path class="st0" d="M248.7,106.9c-1.5-1.1-3.2-1.8-5.1-2.1v5c0.5,0.1,1.1,0.4,1.5,0.6L248.7,106.9z"/>
		<path class="st0" d="M243.6,121.5v5c1.9-0.3,3.6-1,5.1-2.1l-3.6-3.6C244.6,121.1,244.1,121.3,243.6,121.5z"/>
		<path class="st0" d="M247.2,118.7l3.6,3.6c1.1-1.5,1.8-3.2,2.1-5.1h-5C247.8,117.7,247.5,118.2,247.2,118.7z"/>
		<path class="st0" d="M247.3,112.6c0.3,0.5,0.5,1,0.6,1.5v0h5c-0.3-1.9-1-3.6-2.1-5.1L247.3,112.6z"/>
		<path class="st0" d="M97.6,112.6l-3.6-3.6c-1.1,1.5-1.8,3.2-2.1,5.1h5C97.1,113.6,97.3,113.1,97.6,112.6z"/>
		<path class="st0" d="M97,117.2h-5.1c0.3,1.9,1,3.6,2.1,5.1l3.6-3.6C97.3,118.2,97.1,117.7,97,117.2z"/>
		<path class="st0" d="M96.2,124.4c1.5,1.1,3.2,1.8,5.1,2.1v-5c-0.5-0.1-1-0.3-1.5-0.6L96.2,124.4z"/>
		<path class="st0" d="M99.7,110.5c0.5-0.3,1-0.5,1.5-0.6v-5c-1.9,0.3-3.6,1-5.1,2.1L99.7,110.5z"/>
		<path class="st0" d="M109.4,106.9c-1.5-1.1-3.2-1.8-5.1-2.1v5c0.5,0.1,1.1,0.4,1.5,0.6L109.4,106.9z"/>
		<path class="st0" d="M104.3,121.5v5c1.9-0.3,3.6-1,5.1-2.1l-3.6-3.6C105.3,121.1,104.8,121.3,104.3,121.5z"/>
		<path class="st0" d="M107.9,118.7l3.6,3.6c1.1-1.5,1.8-3.2,2.1-5.1h-5C108.4,117.7,108.2,118.2,107.9,118.7z"/>
		<path class="st0" d="M108,112.6c0.3,0.5,0.5,1,0.6,1.5v0h5c-0.3-1.9-1-3.6-2.1-5.1L108,112.6z"/>
		<path class="st0" d="M189.4,57.9c-0.3-0.4-0.8-0.6-1.3-0.6c-1.2,0-30.5,0.6-45.7,14.2c-1.4,0.9-5.3,3.9-4.4,6.8
			c0.8,2.7,4.7,3.1,8.1,3.1c0,0,0,0,0,0l37.3-1.1c0.8,0,1.4-0.5,1.6-1.3l4.8-19.6C189.8,58.8,189.7,58.3,189.4,57.9z M182,76.9
			L146,78c-3.7,0-4.7-0.6-4.8-0.6c0,0,0,0,0,0c0.1-0.6,1.6-2.1,3.1-3.2c0.1,0,0.1-0.1,0.2-0.2c11.9-10.8,34.3-12.9,41.4-13.4
			L182,76.9z"/>
		<path class="st0" d="M216.1,59.9c-0.1-0.1-0.2-0.2-0.2-0.2c-0.6-0.4-4.3-2.7-21.6-2.5c-0.8,0-1.5,0.6-1.6,1.4l-3.1,19
			c-0.1,0.5,0.1,1,0.4,1.4c0.3,0.4,0.8,0.6,1.3,0.6c0,0,0,0,0.1,0l37.4-1.1c0.6,0,1.2-0.4,1.5-1c0.3-0.6,0.2-1.3-0.3-1.8L216.1,59.9
			z M193.1,76.2l2.5-15.6c13.7-0.1,17.5,1.5,18.1,1.7L225,75.2L193.1,76.2z"/>
		<path class="st0" d="M242.3,69.6l-1.7-0.9c-4.1-2.2-11.7-6.2-17.9-8.6c-0.7-0.3-1.5,0-2,0.6c-0.5,0.6-0.4,1.5,0.1,2.1l12.8,15.1
			c0.3,0.4,0.8,0.6,1.3,0.6h9.5c0.8,0,1.5-0.6,1.7-1.4C246.5,74,245,71,242.3,69.6z M235.6,75l-7.6-8.9c4.2,2,8.3,4.2,10.9,5.6
			l1.8,0.9c1,0.5,1.7,1.4,1.9,2.4H235.6z"/>
		<path class="st0" d="M283.9,89.5V77.9c0-2.8-2-5.2-4.8-5.6c-4.6-0.7-13-2.1-16.6-3.2c-2-0.6-6.2-2.3-11.2-4.2
			c-8.3-3.2-17.8-6.9-22.4-8l-1.4-0.3c-5.9-1.4-19.6-4.7-36.3-4.7c-12.3,0-23.8,1.8-34.1,5.4c-2.9,1-10.7,4.6-19.7,8.7
			c-7.7,3.5-16.5,7.5-23.1,10.3c-5.3,0.5-45.5,8.4-48.1,15.4c-2,5.3-2.8,8.2-3.2,9.8l-0.1,0.5c-0.5,1.9,0,9.5,3.2,14.8
			c0.1,0.2,0.4,0.4,0.6,0.6c3.3,1.9,10.6,4.3,17.7,5.1c0.1,0,0.1,0,0.2,0c0,0,0,0,0,0c0.1,0,0.1,0,0.2,0c2.7,7.4,9.8,12.6,18,12.6
			c8,0,15.1-5.1,17.9-12.3c0.2,0.1,0.3,0.1,0.5,0.1h0.1c0,0,0,0,0,0l102-2c0.1,0,0.3-0.1,0.4-0.1c2.2,8.3,9.7,14.3,18.5,14.3
			c9.8,0,18.2-7.6,19.1-17.4c0.3,0,0.6,0,0.7,0c0.1,0,0.3,0,0.4,0l17.6-3.3c0.2,0,0.3-0.1,0.5-0.2c0.3-0.2,7.4-4.1,7.4-14.5
			C287.9,94,285.2,90.7,283.9,89.5z M118.5,117c-0.7,8.1-7.6,14.5-15.7,14.5c-7.9,0-14.7-5.9-15.7-13.8c-0.1-0.6-0.1-1.3-0.1-2
			c0-8.7,7.1-15.8,15.8-15.8c4.2,0,8.2,1.6,11.2,4.6c3,3,4.6,7,4.6,11.2C118.6,116.1,118.5,116.6,118.5,117z M257.8,117
			c-0.7,8.1-7.6,14.5-15.7,14.5c-7.9,0-14.7-5.9-15.7-13.8c-0.1-0.6-0.1-1.3-0.1-2c0-8.7,7.1-15.8,15.8-15.8c4.2,0,8.2,1.6,11.2,4.6
			c3,3,4.6,7,4.6,11.2C257.9,116.1,257.8,116.6,257.8,117z M279,110.9l-16.6,3.1l-0.3,0c-0.2,0-0.5,0-0.8,0
			c-0.6-11.4-8.1-18.7-19.3-18.7c-12.1,0-20.9,8.5-20.9,20.3c0,0.5,0,1.1,0.1,1.7l-98,1.9c0.1-0.6,0.2-1.2,0.2-1.8
			c0-0.6,0.1-1.2,0.1-1.8c0-11.9-8.4-20.3-20.4-20.3c-11.8,0-20.6,9.2-20.6,21.4c0,0.6,0,1.2,0.1,1.8c-5.5-0.9-11-2.7-13.8-4.1
			c-2.6-4.5-2.9-10.8-2.6-11.8l0.1-0.5c0.4-1.6,1.1-4.3,3.1-9.5c1.7-4.3,40-13.2,45.4-13.3c0.2,0,0.4-0.1,0.6-0.1
			c6.6-2.8,15.5-6.9,23.4-10.5c8.6-3.9,16.7-7.6,19.4-8.6c9.9-3.4,21-5.2,33-5.2c16.3,0,29.8,3.2,35.5,4.6l1.5,0.3
			c4.3,1,14.1,4.8,21.9,7.8c5,1.9,9.3,3.6,11.4,4.3c3.7,1.1,11.3,2.4,17.1,3.3c1.2,0.2,2,1.2,2,2.3v12.4c0,0.5,0.3,1,0.7,1.4
			c0.1,0.1,3.2,2.5,3.2,7.9C284.5,107.1,280,110.3,279,110.9z"/>
	</g>
	<path class="st1" d="M245.8,63.7c-11-2.5-7.4-39.3-7.4-39.3c0.2-6-0.8-16.3-11-15.1c0,0-16.8,3.7-46.6,24.9c0,0,0.8,2,0.8,4.1
		c0,0,2.5,2.5-3.7,3.3h-17.2c0,0-7-0.4-0.4-6.1c0,0,7.4-4.1,18.4-4.9c0,0,41.7-33.1,56.9-24.5c0,0,9,2.9,7.8,21.7
		c0,0-1.8,17.6,1.8,29.9L245.8,63.7z"/>
	<ellipse class="st1" cx="160.2" cy="48.5" rx="1" ry="4.1"/>
	<ellipse class="st1" cx="166.1" cy="48.5" rx="1" ry="4.1"/>
	<ellipse class="st1" cx="172" cy="48.5" rx="1" ry="4.1"/>
	<ellipse class="st1" cx="177.9" cy="48.5" rx="1" ry="4.1"/>
</g>
</svg>
