<?xml version="1.0" encoding="utf-8"?>
<!-- Generator: Adobe Illustrator 19.0.1, SVG Export Plug-In . SVG Version: 6.00 Build 0)  -->
<svg version="1.1" id="Слой_1" xmlns="http://www.w3.org/2000/svg" xmlns:xlink="http://www.w3.org/1999/xlink" x="0px" y="0px"
	 width="59px" height="59px" viewBox="0 0 59 59" style="enable-background:new 0 0 59 59;" xml:space="preserve">
<path d="M29.5,0C13.2,0,0,13.2,0,29.5S13.2,59,29.5,59S59,45.8,59,29.5S45.8,0,29.5,0z M39.7,31.1l-14.8,9.2c-0.3,0.2-0.6,0.3-1,0.3
	c-0.3,0-0.6-0.1-0.9-0.2c-0.6-0.3-0.9-0.9-0.9-1.6V20.3c0-0.7,0.4-1.3,0.9-1.6c0.6-0.3,1.3-0.3,1.9,0l14.8,9.2
	c0.5,0.3,0.9,0.9,0.9,1.6S40.2,30.7,39.7,31.1z"/>
</svg>
