<?xml version="1.0" encoding="utf-8"?>
<!-- Generator: Adobe Illustrator 19.0.1, SVG Export Plug-In . SVG Version: 6.00 Build 0)  -->
<svg version="1.1" id="Слой_1" xmlns="http://www.w3.org/2000/svg" xmlns:xlink="http://www.w3.org/1999/xlink" x="0px" y="0px"
	viewBox="0 0 380 13" style="enable-background:new 0 0 380 13;" xml:space="preserve">
<style type="text/css">
	.st0{fill:#169FE5;}
</style>
<path class="st0" d="M379,9l-8.4-7.6c-0.9-0.9-2.2-1.3-3.4-1.3c-1.3,0-2.5,0.5-3.4,1.3L355.4,9L347,1.3C346,0.5,344.8,0,343.6,0
	c-1.3,0-2.5,0.5-3.4,1.3L331.8,9l-8.4-7.6C322.4,0.5,321.2,0,320,0s-2.5,0.5-3.4,1.3L308.2,9l-8.4-7.6c-0.9-0.9-2.2-1.3-3.4-1.3
	c-1.3,0-2.5,0.5-3.4,1.3l-8.3,7.6l-8.3-7.6c-0.9-0.9-2.2-1.3-3.4-1.3c-1.3,0-2.5,0.5-3.4,1.3L261,9l-8.4-7.6
	c-0.9-0.9-2.2-1.3-3.4-1.3c-1.3,0-2.5,0.5-3.4,1.3L237.4,9L229,1.3c-0.9-0.9-2.2-1.3-3.4-1.3c-1.3,0-2.5,0.5-3.4,1.3L213.8,9
	l-8.4-7.6C204.5,0.5,203.3,0,202,0c-1.3,0-2.5,0.5-3.4,1.3l-8.3,7.6l-8.3-7.6C181,0.5,179.8,0,178.5,0c-1.3,0-2.5,0.5-3.4,1.3
	L166.7,9l-8.4-7.6c-0.9-0.9-2.2-1.3-3.4-1.3c-1.3,0-2.5,0.5-3.4,1.3L143.1,9l-8.4-7.6c-0.9-0.9-2.2-1.3-3.4-1.3
	c-1.3,0-2.5,0.5-3.4,1.3L119.5,9l-8.4-7.6c-0.9-0.9-2.2-1.3-3.4-1.3s-2.5,0.5-3.4,1.3l-8.3,7.6l-8.3-7.6C86.6,0.5,85.4,0,84.1,0
	c-1.3,0-2.5,0.5-3.4,1.3L72.3,9l-8.4-7.6C63,0.5,61.8,0,60.5,0c-1.3,0-2.5,0.5-3.4,1.3L48.7,9l-8.4-7.6C39.4,0.5,38.2,0,36.9,0
	c-1.3,0-2.5,0.5-3.4,1.3L25.1,9l-8.4-7.6C15.8,0.5,14.6,0,13.3,0C12,0,10.8,0.5,9.9,1.3L0.5,9.9c-0.6,0.6-0.7,1.5-0.1,2.1
	c0.5,0.6,1.5,0.6,2.1,0.1l9.4-8.5c0.8-0.7,2-0.7,2.8,0l9.4,8.5c0.6,0.5,1.5,0.5,2,0l9.4-8.5c0.8-0.7,2-0.7,2.8,0l9.4,8.5
	c0.6,0.5,1.5,0.5,2,0l9.4-8.5c0.8-0.7,2-0.7,2.8,0l9.4,8.5c0.6,0.5,1.5,0.5,2,0l9.4-8.5c0.8-0.7,2-0.7,2.8,0l9.1,8.2
	c0,0.1,0.1,0.1,0.2,0.2c0.3,0.3,0.6,0.4,1,0.5c0.1,0,0.1,0,0.2,0c0.4,0,0.7-0.1,1-0.4l9.4-8.5c0.1-0.1,0.1-0.1,0.2-0.2
	c0.8-0.5,1.8-0.4,2.5,0.2l9.4,8.5c0.6,0.5,1.5,0.5,2,0l9.4-8.5c0.8-0.7,2-0.7,2.8,0l9.4,8.5c0.6,0.5,1.5,0.5,2,0l9.4-8.5
	c0.8-0.7,2-0.7,2.8,0l9.4,8.5c0.6,0.5,1.5,0.5,2,0l9.4-8.5c0.8-0.7,2-0.7,2.8,0l9.1,8.2c0,0.1,0.1,0.1,0.2,0.2
	c0.3,0.3,0.6,0.4,1,0.5c0.1,0,0.1,0,0.2,0c0.4,0,0.7-0.1,1-0.4l9.4-8.5c0.1-0.1,0.1-0.1,0.2-0.2c0.8-0.5,1.8-0.4,2.5,0.2l9.4,8.5
	c0.6,0.5,1.5,0.5,2,0l9.4-8.5c0.8-0.7,2-0.7,2.8,0l9.4,8.5c0.6,0.5,1.5,0.5,2,0l9.4-8.5c0.8-0.7,2-0.7,2.8,0l9.4,8.5
	c0.6,0.5,1.5,0.5,2,0l9.4-8.5c0.8-0.7,2-0.7,2.8,0l9.1,8.2c0,0.1,0.1,0.1,0.2,0.2c0.3,0.3,0.6,0.4,1,0.5c0.1,0,0.1,0,0.2,0
	c0.4,0,0.7-0.1,1-0.4l9.4-8.6c0.1-0.1,0.1-0.1,0.2-0.2c0.8-0.5,1.8-0.4,2.5,0.2l9.4,8.5c0.6,0.5,1.5,0.5,2,0l9.4-8.5
	c0.8-0.7,2-0.7,2.8,0l9.4,8.5c0.6,0.5,1.5,0.5,2,0l9.4-8.5c0.8-0.7,2-0.7,2.8,0l9.4,8.5c0.6,0.5,1.5,0.5,2,0l9.4-8.5
	c0.8-0.7,2-0.7,2.8,0l9.4,8.5c0.3,0.3,0.6,0.4,1,0.4c0.4,0,0.7-0.1,1-0.4L379,9z"/>
</svg>
