<?xml version="1.0" encoding="utf-8"?>
<!-- Generator: Adobe Illustrator 19.0.1, SVG Export Plug-In . SVG Version: 6.00 Build 0)  -->
<svg version="1.1" id="Слой_1" xmlns="http://www.w3.org/2000/svg" xmlns:xlink="http://www.w3.org/1999/xlink" x="0px" y="0px"
	 width="90px" height="30px" viewBox="0 0 90 30" style="enable-background:new 0 0 90 30;" xml:space="preserve">
<style type="text/css">
	.st0{fill:#FFFFFF;}
</style>
<path class="st0" d="M17.3,14.3L17.3,14.3c1.1-0.4,1.9-1.4,1.9-2.8c0-1.9-1.6-3-3.3-3H10v13h5.4c3.3,0,4.6-2.1,4.6-3.9
	C20,15.5,18.9,14.7,17.3,14.3z M13,10.8h0.7c0.5,0,1.3-0.1,1.7,0.2c0.4,0.2,0.6,0.7,0.6,1.2c0,0.4-0.2,0.9-0.5,1.2
	c-0.4,0.3-1.1,0.3-1.6,0.3H13V10.8z M16.2,18.8c-0.5,0.3-1.1,0.3-1.7,0.3H13v-3.2h1.6c0.5,0,1.1,0,1.5,0.2c0.4,0.2,0.7,0.8,0.7,1.3
	C16.8,18,16.6,18.5,16.2,18.8z"/>
<path class="st0" d="M52,10c-0.1,0.2-0.3,0.5-0.5,0.8c-0.3,0.3-0.6,0.6-0.9,0.9c0,0.1,0,0.2,0,0.3c0,0.1,0,0.2,0,0.3
	c0,0.5,0,1-0.1,1.6c-0.1,0.6-0.3,1.2-0.5,1.8c-0.2,0.6-0.5,1.2-0.8,1.8C48.8,18,48.5,18.5,48,19c-0.4,0.5-0.9,0.9-1.5,1.3
	c-0.6,0.4-1.2,0.7-1.9,0.9c-0.8,0.2-1.6,0.3-2.4,0.3c-0.3,0-0.7,0-1.1-0.1c-0.4,0-0.7-0.1-1.1-0.2c-0.4-0.1-0.7-0.3-1.1-0.4
	c-0.4-0.2-0.7-0.4-1-0.7c0.8,0.1,1.6,0.1,2.3-0.2c0.7-0.3,1.4-0.7,2-1.2c-0.1,0-0.3,0-0.5,0c-0.2,0-0.5-0.1-0.7-0.3
	c-0.3-0.1-0.5-0.4-0.8-0.7c-0.3-0.3-0.5-0.7-0.7-1.3c0.1,0,0.1,0,0.3,0c0.1,0,0.2,0,0.4,0c0.1,0,0.2,0,0.4,0c0.1,0,0.2,0,0.3-0.1
	c-0.5-0.2-1-0.4-1.3-0.7c-0.3-0.3-0.5-0.6-0.7-0.9c-0.1-0.3-0.2-0.6-0.3-0.9c0-0.3-0.1-0.5-0.1-0.7c0.1,0.1,0.3,0.2,0.6,0.3
	c0.3,0.1,0.5,0.2,0.7,0.1c-0.4-0.4-0.7-0.8-0.9-1.2c-0.2-0.4-0.3-0.8-0.3-1.1c0-0.4,0-0.7,0.1-1.1c0.1-0.3,0.2-0.7,0.3-1
	c0.6,0.7,1.1,1.3,1.7,1.7c0.6,0.4,1.1,0.8,1.6,1c0.5,0.2,1,0.4,1.4,0.5c0.4,0.1,0.8,0.1,1.2,0.1c-0.1-0.5-0.1-0.9,0-1.3
	c0.1-0.4,0.2-0.8,0.4-1.1c0.2-0.3,0.4-0.6,0.7-0.9c0.3-0.2,0.7-0.4,1.1-0.6c0.5-0.2,1-0.2,1.5,0c0.5,0.2,0.9,0.5,1.2,0.9
	c0.1,0,0.4-0.1,0.7-0.2c0.3-0.1,0.7-0.3,1.2-0.6c0,0.1-0.1,0.3-0.1,0.4c-0.1,0.2-0.2,0.3-0.3,0.5c-0.1,0.2-0.2,0.3-0.4,0.5
	c-0.1,0.2-0.3,0.3-0.5,0.4c0.2,0,0.3-0.1,0.5-0.1c0.2,0,0.3-0.1,0.5-0.2C51.6,10.2,51.8,10.1,52,10z"/>
<g>
	<g>
		<path class="st0" d="M75.8,12.7v-1.9c0-0.6,0.6-0.7,0.9-0.7c0.3,0,1.7,0,1.7,0V7.5l-1.9,0c-2.6,0-3.2,1.9-3.2,3.1v2.1h-1.9v2.6
			h1.9c0,3.4,0,7.1,0,7.1h2.6c0,0,0-3.8,0-7.1H78l0.4-2.6H75.8z"/>
	</g>
</g>
</svg>
