<?xml version="1.0" encoding="utf-8"?>
<!-- Generator: Adobe Illustrator 19.0.1, SVG Export Plug-In . SVG Version: 6.00 Build 0)  -->
<svg version="1.1" id="Слой_1" xmlns="http://www.w3.org/2000/svg" xmlns:xlink="http://www.w3.org/1999/xlink" x="0px" y="0px"
	 width="276px" height="17px" viewBox="0 0 276 17" style="enable-background:new 0 0 276 17;" xml:space="preserve">
<style type="text/css">
	.st0{fill:#FFFFFF;}
</style>
<g>
	<path class="st0" d="M1,4l5,1c4.4,0,7.5,2.3,10.2,5.2C19.1,13.4,22.4,17,29,17c6.6,0,9.9-3.6,12.8-6.8C44.5,7.3,46.6,5,51,5
		c4.4,0,6.5,2.3,9.2,5.2C63.1,13.4,66.4,17,73,17c6.6,0,9.9-3.6,12.8-6.8C88.5,7.3,90.6,5,95,5c4.4,0,6.5,2.3,9.2,5.2
		c2.9,3.2,6.2,6.8,12.8,6.8s9.9-3.6,12.8-6.8c2.7-2.9,4.8-5.2,9.2-5.2c4.4,0,6.5,2.3,9.2,5.2c2.9,3.2,6.2,6.8,12.8,6.8
		s9.9-3.6,12.8-6.8c2.7-2.9,4.8-5.2,9.2-5.2c4.4,0,6.5,2.3,9.2,5.2c2.9,3.2,6.2,6.8,12.8,6.8c6.6,0,9.9-3.6,12.8-6.8
		c2.7-2.9,4.8-5.2,9.2-5.2c4.4,0,6.5,2.3,9.2,5.2c2.9,3.2,6.2,6.8,12.8,6.8c6.6,0,9.9-3.6,12.8-6.8C264.5,7.3,269.6,5,274,5l2-5
		c-6.6,0-14.9,3.6-17.8,6.8c-2.7,2.9-4.8,5.2-9.2,5.2c-4.4,0-6.5-2.3-9.2-5.2C236.9,3.6,233.6,0,227,0c-6.6,0-9.9,3.6-12.8,6.8
		c-2.7,2.9-4.8,5.2-9.2,5.2c-4.4,0-6.5-2.3-9.2-5.2C192.9,3.6,189.6,0,183,0c-6.6,0-9.9,3.6-12.8,6.8c-2.7,2.9-4.8,5.2-9.2,5.2
		c-4.4,0-6.5-2.3-9.2-5.2C148.9,3.6,145.6,0,139,0c-6.6,0-9.9,3.6-12.8,6.8c-2.7,2.9-4.8,5.2-9.2,5.2c-4.4,0-6.5-2.3-9.2-5.2
		C104.9,3.6,101.6,0,95,0c-6.6,0-9.9,3.6-12.8,6.8C79.5,9.7,77.4,12,73,12c-4.4,0-6.5-2.3-9.2-5.2C60.9,3.6,57.6,0,51,0
		c-6.6,0-9.9,3.6-12.8,6.8C35.5,9.7,33.4,12,29,12c-4.4,0-6.5-2.3-9.2-5.2C16.9,3.6,12.6,0,6,0L0,0L1,4z"/>
</g>
</svg>
